G04 #@! TF.FileFunction,Copper,L2,Bot,Signal*
%FSLAX46Y46*%
G04 Gerber Fmt 4.6, Leading zero omitted, Abs format (unit mm)*
G04 Created by KiCad (PCBNEW 4.0.1-stable) date 2018/01/12 13:37:46*
%MOMM*%
G01*
G04 APERTURE LIST*
%ADD10C,0.150000*%
%ADD11C,0.800100*%
%ADD12C,1.524000*%
%ADD13C,2.900000*%
%ADD14C,1.500000*%
%ADD15R,0.970000X0.970000*%
%ADD16C,0.970000*%
%ADD17R,2.032000X2.032000*%
%ADD18C,2.032000*%
%ADD19C,3.400000*%
%ADD20R,16.000000X5.000000*%
%ADD21C,0.599440*%
%ADD22C,0.500380*%
%ADD23C,1.143000*%
%ADD24C,0.889000*%
%ADD25C,0.381000*%
%ADD26C,0.254000*%
%ADD27C,1.524000*%
%ADD28C,1.016000*%
%ADD29C,0.508000*%
G04 APERTURE END LIST*
D10*
D11*
X76125000Y-53875000D03*
X53250000Y-60500000D03*
D12*
X124301000Y-47480000D03*
X124301000Y-50020000D03*
X126299980Y-50020000D03*
X126299980Y-47480000D03*
D13*
X129000000Y-42750520D03*
X129000000Y-54749480D03*
D14*
X91750000Y-40100000D03*
X94250000Y-40100000D03*
X96750000Y-40100000D03*
X96750000Y-36900000D03*
X94250000Y-36900000D03*
X91750000Y-36900000D03*
D15*
X109540000Y-32615000D03*
D16*
X109540000Y-33885000D03*
X108270000Y-32615000D03*
X108270000Y-33885000D03*
X107000000Y-32615000D03*
X107000000Y-33885000D03*
X105730000Y-32615000D03*
X105730000Y-33885000D03*
X104460000Y-32615000D03*
X104460000Y-33885000D03*
D17*
X67290000Y-33800000D03*
D18*
X69830000Y-33800000D03*
X72370000Y-33800000D03*
X74910000Y-33800000D03*
D17*
X44440000Y-40500000D03*
D18*
X46980000Y-40500000D03*
X49520000Y-40500000D03*
X52060000Y-40500000D03*
D17*
X44440000Y-33750000D03*
D18*
X46980000Y-33750000D03*
X49520000Y-33750000D03*
X52060000Y-33750000D03*
D17*
X59290000Y-78250000D03*
D18*
X56750000Y-78250000D03*
X54210000Y-78250000D03*
D17*
X71040000Y-78250000D03*
D18*
X68500000Y-78250000D03*
X65960000Y-78250000D03*
D17*
X102270000Y-78250000D03*
D18*
X99730000Y-78250000D03*
D17*
X33230000Y-81750000D03*
D18*
X35770000Y-81750000D03*
D17*
X132870000Y-83300000D03*
D18*
X130330000Y-83300000D03*
D17*
X120270000Y-78250000D03*
D18*
X117730000Y-78250000D03*
D17*
X111270000Y-78250000D03*
D18*
X108730000Y-78250000D03*
D17*
X84270000Y-78250000D03*
D18*
X81730000Y-78250000D03*
D17*
X33230000Y-74750000D03*
D18*
X35770000Y-74750000D03*
D17*
X47770000Y-78250000D03*
D18*
X45230000Y-78250000D03*
D17*
X33230000Y-67750000D03*
D18*
X35770000Y-67750000D03*
D17*
X93270000Y-78250000D03*
D18*
X90730000Y-78250000D03*
D19*
X132200000Y-30300000D03*
X119200000Y-63600000D03*
X55000000Y-71100000D03*
X32700000Y-30300000D03*
D17*
X33230000Y-38000000D03*
D18*
X35770000Y-38000000D03*
D20*
X48250000Y-55250000D03*
X71120000Y-48620000D03*
D11*
X123000000Y-58200000D03*
X123300000Y-76000000D03*
D21*
X98700000Y-76600000D03*
D22*
X116250000Y-33250000D03*
X114750000Y-33250000D03*
X115500000Y-33250000D03*
X116250000Y-32250000D03*
X114750000Y-32250000D03*
X115500000Y-32250000D03*
X114000000Y-32750000D03*
X117000000Y-32750000D03*
X116250000Y-32750000D03*
X114750000Y-32750000D03*
X115500000Y-32698000D03*
D21*
X118200000Y-35100000D03*
X118200000Y-34100000D03*
X118200000Y-36100000D03*
X118200000Y-32700000D03*
X112700000Y-32700000D03*
X112700000Y-34100000D03*
X112700000Y-36200000D03*
X112700000Y-35100000D03*
X62700000Y-66000000D03*
X59290000Y-76510000D03*
X59700000Y-66100000D03*
X66200000Y-66000000D03*
X40600000Y-42400000D03*
X61400000Y-41900000D03*
X72750000Y-76600000D03*
X73400000Y-52500000D03*
X70800000Y-52500000D03*
X50500000Y-59100000D03*
X47900000Y-59100000D03*
X116700000Y-76600000D03*
X107700000Y-76600000D03*
X89700000Y-76600000D03*
X80700000Y-76600000D03*
X134100000Y-58500000D03*
X109800000Y-58200000D03*
X102000000Y-58200000D03*
X98900380Y-44700000D03*
X102700000Y-38500000D03*
X50400000Y-76400000D03*
D22*
X112000000Y-59000000D03*
X111750000Y-57500000D03*
X105500000Y-57500000D03*
X124400000Y-59100000D03*
X84600000Y-68700000D03*
X100300000Y-67900000D03*
X100600000Y-61800000D03*
X103800000Y-61100000D03*
X84149160Y-71600000D03*
X72200000Y-72500000D03*
D23*
X121600000Y-67700000D03*
X125470002Y-69100000D03*
X127700000Y-72800000D03*
X127700000Y-76600000D03*
D22*
X128800000Y-69600000D03*
X128800000Y-66600000D03*
X37600000Y-44400000D03*
X73750000Y-35250000D03*
X68750000Y-35250000D03*
X78000000Y-33500000D03*
X62500000Y-33500000D03*
X35750000Y-56500000D03*
X38250000Y-56500000D03*
X43750000Y-56500000D03*
X40500000Y-56500000D03*
X42750000Y-56500000D03*
X41750000Y-56500000D03*
X39500000Y-56500000D03*
X37000000Y-56500000D03*
X37000000Y-55250000D03*
X39500000Y-55250000D03*
X41750000Y-55250000D03*
X43750000Y-55250000D03*
X45500000Y-55250000D03*
X44750000Y-55250000D03*
X42750000Y-55250000D03*
X40500000Y-55250000D03*
X38250000Y-55250000D03*
X35750000Y-55250000D03*
X34600000Y-71500000D03*
X34750000Y-65750000D03*
X34700000Y-69900000D03*
X34600000Y-73200000D03*
X35700000Y-73100000D03*
X35700000Y-70000000D03*
X35700000Y-71600000D03*
X35750000Y-65750000D03*
X37000000Y-73200000D03*
X37000000Y-70000000D03*
X37000000Y-65750000D03*
X37000000Y-63250000D03*
X37000000Y-60250000D03*
X37000000Y-57750000D03*
X37000000Y-59000000D03*
X37000000Y-61750000D03*
X37000000Y-64500000D03*
X37000000Y-71500000D03*
X37000000Y-75700000D03*
X35800000Y-77400000D03*
X35750000Y-57750000D03*
X34750000Y-63250000D03*
X34750000Y-60250000D03*
X34750000Y-57750000D03*
X34750000Y-59000000D03*
X34750000Y-61750000D03*
X34750000Y-64500000D03*
X51400000Y-64700000D03*
X49000000Y-64700000D03*
X57500000Y-51750000D03*
X59750000Y-51000000D03*
X59750000Y-43750000D03*
X50700000Y-44300000D03*
X45500000Y-44300000D03*
X40500000Y-63250000D03*
X43100000Y-63500000D03*
X74400000Y-75400000D03*
X71900000Y-75300000D03*
X71600000Y-58400000D03*
X76200000Y-58000000D03*
X81900000Y-61700000D03*
X81700000Y-59100000D03*
X89500000Y-60500000D03*
X90600000Y-57500000D03*
X100900000Y-60400000D03*
X101200000Y-56900000D03*
X116700000Y-40900000D03*
X104100000Y-39500000D03*
X119700000Y-40900000D03*
X113214000Y-40700000D03*
X122400000Y-37300000D03*
X90400000Y-47700000D03*
X90700000Y-49100000D03*
D11*
X119500000Y-56500000D03*
D22*
X65000000Y-58250000D03*
X65000000Y-55250000D03*
X65000000Y-52250000D03*
X65000000Y-49750000D03*
X65000000Y-51000000D03*
X65000000Y-53750000D03*
X65000000Y-56750000D03*
X63750000Y-58250000D03*
X63750000Y-55250000D03*
X63750000Y-52250000D03*
X63750000Y-49750000D03*
X63750000Y-51000000D03*
X63750000Y-53750000D03*
X63750000Y-56750000D03*
X63750000Y-59500000D03*
X62250000Y-58250000D03*
X62250000Y-55250000D03*
X62250000Y-52250000D03*
X62250000Y-49750000D03*
X62250000Y-51000000D03*
X62250000Y-53750000D03*
X62250000Y-56750000D03*
X62250000Y-59500000D03*
X61000000Y-58250000D03*
X61000000Y-55250000D03*
X61000000Y-52250000D03*
X61000000Y-49750000D03*
X59750000Y-49750000D03*
X61000000Y-51000000D03*
X61000000Y-53750000D03*
X61000000Y-56750000D03*
X61000000Y-59500000D03*
X66500000Y-51000000D03*
X66500000Y-49750000D03*
X66500000Y-52250000D03*
X59750000Y-59500000D03*
X59750000Y-55250000D03*
X59750000Y-52250000D03*
X59750000Y-53750000D03*
X59750000Y-56750000D03*
X59750000Y-58250000D03*
X67500000Y-49750000D03*
X68500000Y-49750000D03*
X62250000Y-43750000D03*
X62250000Y-44750000D03*
X61000000Y-43750000D03*
X59750000Y-42750000D03*
X61000000Y-42750000D03*
X61000000Y-44750000D03*
X63750000Y-46000000D03*
X59750000Y-44750000D03*
X61000000Y-46000000D03*
X65000000Y-46000000D03*
X62250000Y-46000000D03*
X59750000Y-46000000D03*
X62250000Y-42750000D03*
X66250000Y-47250000D03*
X66250000Y-46000000D03*
X75750000Y-47250000D03*
X75750000Y-46000000D03*
X76750000Y-46000000D03*
X76750000Y-47250000D03*
X76750000Y-44750000D03*
X78000000Y-44750000D03*
X78000000Y-47250000D03*
X78000000Y-46000000D03*
X78000000Y-43500000D03*
X79250000Y-43500000D03*
X79250000Y-46000000D03*
X79250000Y-47250000D03*
X79250000Y-44750000D03*
X79250000Y-42500000D03*
X80500000Y-42500000D03*
X80500000Y-44750000D03*
X80500000Y-47250000D03*
X80500000Y-46000000D03*
X80500000Y-43500000D03*
X80500000Y-41500000D03*
X81500000Y-42500000D03*
X81500000Y-44750000D03*
X81500000Y-47250000D03*
X81500000Y-46000000D03*
X81500000Y-43500000D03*
X81500000Y-41500000D03*
X82500000Y-42500000D03*
X82500000Y-44750000D03*
X82500000Y-47250000D03*
X74750000Y-47250000D03*
X82500000Y-46000000D03*
X82500000Y-43500000D03*
X82500000Y-41500000D03*
X78000000Y-54500000D03*
X78000000Y-52250000D03*
X78000000Y-49750000D03*
X78000000Y-51000000D03*
X78000000Y-53500000D03*
X77250000Y-54500000D03*
X75750000Y-51000000D03*
X75750000Y-49750000D03*
X75750000Y-52250000D03*
X76750000Y-52250000D03*
X76750000Y-49750000D03*
X76750000Y-51000000D03*
X76750000Y-53000000D03*
X79250000Y-53500000D03*
X79250000Y-51000000D03*
X79250000Y-49750000D03*
X79250000Y-52250000D03*
X79250000Y-54500000D03*
X80500000Y-53500000D03*
X80500000Y-51000000D03*
X80500000Y-49750000D03*
X80500000Y-52250000D03*
X80500000Y-54500000D03*
X81500000Y-53500000D03*
X81500000Y-51000000D03*
X81500000Y-49750000D03*
X81500000Y-52250000D03*
X81500000Y-54500000D03*
X82500000Y-53500000D03*
X82500000Y-51000000D03*
X74750000Y-49750000D03*
X73750000Y-49750000D03*
X82500000Y-49750000D03*
X82500000Y-52250000D03*
X82500000Y-54500000D03*
X81500000Y-48500000D03*
X79250000Y-48500000D03*
X78000000Y-48500000D03*
X80500000Y-48500000D03*
X82500000Y-48500000D03*
X61000000Y-47250000D03*
X63750000Y-47250000D03*
X67500000Y-47250000D03*
X65000000Y-47250000D03*
X62250000Y-47250000D03*
X59750000Y-47250000D03*
X61000000Y-48500000D03*
X63750000Y-48500000D03*
X65000000Y-48500000D03*
X62250000Y-48500000D03*
X59750000Y-48500000D03*
X76500000Y-48500000D03*
X75750000Y-48500000D03*
X74750000Y-48500000D03*
X73750000Y-48500000D03*
X66250000Y-48500000D03*
X68500000Y-48500000D03*
X67500000Y-48500000D03*
X68500000Y-47250000D03*
X57500000Y-49250000D03*
X56250000Y-51750000D03*
X57500000Y-50500000D03*
X57500000Y-48250000D03*
X56250000Y-50500000D03*
X56250000Y-49250000D03*
X55000000Y-51750000D03*
X55000000Y-50500000D03*
X57500000Y-59500000D03*
X57500000Y-57500000D03*
X56250000Y-56500000D03*
X57500000Y-56500000D03*
X57500000Y-58500000D03*
X57500000Y-60750000D03*
X56250000Y-59500000D03*
X56250000Y-57500000D03*
X56250000Y-58500000D03*
X56250000Y-60750000D03*
X55000000Y-59500000D03*
X55000000Y-57500000D03*
X55000000Y-56500000D03*
X55000000Y-58500000D03*
X55000000Y-60750000D03*
X53750000Y-58500000D03*
X53750000Y-56500000D03*
X53750000Y-57500000D03*
X53750000Y-59500000D03*
X52750000Y-57500000D03*
X52750000Y-56500000D03*
X52750000Y-58500000D03*
X53750000Y-51750000D03*
X52750000Y-52750000D03*
X52750000Y-51750000D03*
X56250000Y-52750000D03*
X53750000Y-52750000D03*
X55000000Y-52750000D03*
X57500000Y-52750000D03*
X52750000Y-54000000D03*
X51750000Y-56500000D03*
X51000000Y-56500000D03*
X56250000Y-54000000D03*
X53750000Y-54000000D03*
X51750000Y-54000000D03*
X55000000Y-54000000D03*
X57500000Y-54000000D03*
X56250000Y-55250000D03*
X53750000Y-55250000D03*
X51750000Y-55250000D03*
X52750000Y-55250000D03*
X55000000Y-55250000D03*
X57500000Y-55250000D03*
X35750000Y-63250000D03*
X35750000Y-60250000D03*
X35750000Y-59000000D03*
X35750000Y-61750000D03*
X35750000Y-64500000D03*
X38250000Y-74750000D03*
X38250000Y-71500000D03*
X38250000Y-68500000D03*
X38250000Y-65750000D03*
X38250000Y-63250000D03*
X38250000Y-60250000D03*
X38250000Y-57750000D03*
X38250000Y-59000000D03*
X38250000Y-61750000D03*
X38250000Y-64500000D03*
X38250000Y-67250000D03*
X38250000Y-70000000D03*
X38250000Y-73250000D03*
X38250000Y-75750000D03*
X39500000Y-74750000D03*
X39500000Y-71500000D03*
X39500000Y-68500000D03*
X39500000Y-65750000D03*
X39500000Y-63250000D03*
X39500000Y-60250000D03*
X39500000Y-57750000D03*
X39500000Y-59000000D03*
X39500000Y-61750000D03*
X39500000Y-64500000D03*
X39500000Y-67250000D03*
X39500000Y-70000000D03*
X39500000Y-73250000D03*
X39500000Y-75750000D03*
X40500000Y-75750000D03*
X40500000Y-73250000D03*
X40500000Y-70000000D03*
X40500000Y-67250000D03*
X40500000Y-64500000D03*
X40500000Y-65750000D03*
X40500000Y-68500000D03*
X40500000Y-71500000D03*
X40500000Y-74750000D03*
X40500000Y-61750000D03*
X40500000Y-59000000D03*
X40500000Y-57750000D03*
X40500000Y-60250000D03*
X41750000Y-60250000D03*
X41750000Y-57750000D03*
X41750000Y-59000000D03*
X41750000Y-61750000D03*
X34750000Y-55250000D03*
X43750000Y-54000000D03*
X35750000Y-54000000D03*
X38250000Y-54000000D03*
X40500000Y-54000000D03*
X42750000Y-54000000D03*
X41750000Y-54000000D03*
X39500000Y-54000000D03*
X37000000Y-54000000D03*
X34750000Y-54000000D03*
X34750000Y-56500000D03*
X42750000Y-57750000D03*
X43750000Y-57750000D03*
X35750000Y-53000000D03*
X38250000Y-53000000D03*
X40500000Y-53000000D03*
X42750000Y-53000000D03*
X43750000Y-53000000D03*
X41750000Y-53000000D03*
X39500000Y-53000000D03*
X37000000Y-53000000D03*
X34750000Y-53000000D03*
X35750000Y-52000000D03*
X38250000Y-52000000D03*
X39500000Y-52000000D03*
X40500000Y-52000000D03*
X37000000Y-52000000D03*
X34750000Y-52000000D03*
X41750000Y-52000000D03*
X43750000Y-52000000D03*
X42750000Y-52000000D03*
X44750000Y-54000000D03*
X44750000Y-56500000D03*
X45500000Y-56500000D03*
X51000000Y-55250000D03*
X73750000Y-47250000D03*
X45500000Y-54000000D03*
X51000000Y-54000000D03*
X70250000Y-47750000D03*
X70250000Y-49500000D03*
X72000000Y-49500000D03*
X72000000Y-47750000D03*
X71000000Y-47750000D03*
X71250000Y-49500000D03*
X72250000Y-48750000D03*
X70000000Y-48750000D03*
X71125000Y-48625000D03*
X47250000Y-56250000D03*
X47250000Y-54250000D03*
X49250000Y-56250000D03*
X49250000Y-54250000D03*
X48250000Y-56250000D03*
X48250000Y-54250000D03*
X47250000Y-55250000D03*
X48250000Y-55250000D03*
X49250000Y-55250000D03*
X111900000Y-66000000D03*
X76700000Y-66200000D03*
X72700000Y-53100000D03*
X71500000Y-53100000D03*
X71700000Y-65700000D03*
X73400000Y-64600000D03*
D11*
X119600000Y-43700000D03*
X119700000Y-54700000D03*
D24*
X129000000Y-54749480D03*
D21*
X66200000Y-70100000D03*
X63100000Y-71100000D03*
D22*
X49900000Y-59700000D03*
X48700000Y-59700000D03*
X96000000Y-48800000D03*
X95700000Y-34100000D03*
X100100000Y-56000000D03*
X86500000Y-57300000D03*
X103700000Y-53800000D03*
X100600000Y-54100000D03*
X86400000Y-60400000D03*
X81700000Y-60400000D03*
X113500000Y-63400000D03*
X61800000Y-64200000D03*
X103400000Y-53200000D03*
X84800000Y-57200000D03*
X100600000Y-53400000D03*
X99800000Y-55300000D03*
X84500000Y-61100000D03*
X81700000Y-61100000D03*
X65500000Y-64700000D03*
X112800000Y-64200000D03*
X109300000Y-43000000D03*
X109300000Y-37000000D03*
X104900000Y-41300000D03*
X104900000Y-37000000D03*
X107000000Y-42100000D03*
X107100000Y-37000000D03*
X109400000Y-46500000D03*
X110500000Y-36100000D03*
D11*
X130800000Y-64000000D03*
X124400000Y-65400000D03*
X124100000Y-79500000D03*
X135000000Y-61300000D03*
X134200000Y-46100000D03*
X43600000Y-79900000D03*
X60900000Y-80000000D03*
X64770000Y-70000000D03*
X60900000Y-70000000D03*
D23*
X125600000Y-81270002D03*
D24*
X41600000Y-81600000D03*
D23*
X33250000Y-78750000D03*
D24*
X33200000Y-50700000D03*
X43700000Y-50700000D03*
D21*
X46700000Y-50700000D03*
X49800000Y-50600000D03*
D24*
X58600000Y-46800000D03*
X59100000Y-60500000D03*
X66200000Y-60600000D03*
D21*
X72700000Y-44100000D03*
X69500000Y-44100000D03*
D24*
X81100000Y-40300000D03*
X59300000Y-40600000D03*
X66500000Y-44100000D03*
D22*
X51400000Y-67800000D03*
X110700000Y-65400000D03*
X84200000Y-50100000D03*
X97100000Y-50200000D03*
X83900000Y-38800000D03*
X77200000Y-38300000D03*
X83500000Y-51200000D03*
X96700000Y-51400000D03*
X83000000Y-39600000D03*
X65300000Y-40100000D03*
X119300000Y-67900000D03*
X98100000Y-57700000D03*
X98100000Y-59900000D03*
X98000000Y-66700000D03*
X120149160Y-71700000D03*
X74700000Y-67200000D03*
X98700000Y-57400000D03*
X98700000Y-60300000D03*
X98800000Y-67300000D03*
X110400000Y-68100000D03*
X111149160Y-71600000D03*
X74100000Y-66900000D03*
X77300000Y-62900000D03*
X81700000Y-63000000D03*
X95900000Y-54800000D03*
X75100000Y-54300000D03*
X104700000Y-49900000D03*
X84800000Y-49800000D03*
X84200000Y-38200000D03*
X54400000Y-38300000D03*
X83800000Y-50600000D03*
X109300000Y-51200000D03*
X42900000Y-38900000D03*
X83300000Y-39000000D03*
X101949900Y-71600000D03*
X73500000Y-67400000D03*
X101200000Y-62400000D03*
X101200000Y-67900000D03*
X93500000Y-68700000D03*
X103000000Y-62100000D03*
X72900000Y-67800000D03*
X93149160Y-71600000D03*
X54100000Y-61600000D03*
X80800000Y-61600000D03*
X104300000Y-62800000D03*
X52200000Y-60900000D03*
D25*
X122200000Y-76600000D02*
X122700000Y-76600000D01*
X116700000Y-76600000D02*
X122200000Y-76600000D01*
X122700000Y-76600000D02*
X123300000Y-76000000D01*
X31300000Y-71000000D02*
X31300000Y-75550000D01*
X38700000Y-76400000D02*
X37600000Y-76400000D01*
X38700000Y-76400000D02*
X39100000Y-76400000D01*
X32150000Y-76400000D02*
X37600000Y-76400000D01*
X31300000Y-75550000D02*
X32150000Y-76400000D01*
D26*
X115500000Y-32698000D02*
X115698000Y-32698000D01*
X115698000Y-32698000D02*
X116250000Y-33250000D01*
X115500000Y-32698000D02*
X115302000Y-32698000D01*
X115302000Y-32698000D02*
X114750000Y-33250000D01*
X115500000Y-32698000D02*
X115500000Y-33250000D01*
X115500000Y-32698000D02*
X115802000Y-32698000D01*
X115802000Y-32698000D02*
X116250000Y-32250000D01*
X115500000Y-32698000D02*
X115198000Y-32698000D01*
X115198000Y-32698000D02*
X114750000Y-32250000D01*
X115500000Y-32698000D02*
X115500000Y-32250000D01*
X115500000Y-32698000D02*
X114052000Y-32698000D01*
X114052000Y-32698000D02*
X114000000Y-32750000D01*
X115500000Y-32698000D02*
X116948000Y-32698000D01*
X116948000Y-32698000D02*
X117000000Y-32750000D01*
X115500000Y-32698000D02*
X116198000Y-32698000D01*
X116198000Y-32698000D02*
X116250000Y-32750000D01*
X115500000Y-32698000D02*
X114802000Y-32698000D01*
X114802000Y-32698000D02*
X114750000Y-32750000D01*
X115500000Y-32698000D02*
X115500000Y-32750000D01*
D25*
X31300000Y-50100000D02*
X31300000Y-71000000D01*
X31300000Y-71000000D02*
X31300000Y-71250000D01*
X38000000Y-76400000D02*
X39100000Y-76400000D01*
X59290000Y-76500000D02*
X59290000Y-76510000D01*
X59700000Y-66100000D02*
X59800000Y-66000000D01*
X59800000Y-66000000D02*
X62700000Y-66000000D01*
X62700000Y-66000000D02*
X66200000Y-66000000D01*
X57300000Y-41900000D02*
X61400000Y-41900000D01*
X56800000Y-42400000D02*
X57300000Y-41900000D01*
X40600000Y-42400000D02*
X56800000Y-42400000D01*
X70800000Y-52500000D02*
X73400000Y-52500000D01*
X47900000Y-59100000D02*
X50500000Y-59100000D01*
X59290000Y-76500000D02*
X59290000Y-76510000D01*
X59290000Y-76510000D02*
X50610000Y-76510000D01*
X59290000Y-78250000D02*
X59290000Y-76510000D01*
X107700000Y-76600000D02*
X116700000Y-76600000D01*
X89700000Y-76600000D02*
X98700000Y-76600000D01*
X98700000Y-76600000D02*
X107700000Y-76600000D01*
X83000000Y-76600000D02*
X89700000Y-76600000D01*
X80700000Y-76600000D02*
X83000000Y-76600000D01*
X59380000Y-76600000D02*
X72750000Y-76600000D01*
X59290000Y-76510000D02*
X59380000Y-76600000D01*
X72750000Y-76600000D02*
X80700000Y-76600000D01*
X109800000Y-58200000D02*
X123000000Y-58200000D01*
X123000000Y-58200000D02*
X133800000Y-58200000D01*
X133800000Y-58200000D02*
X134100000Y-58500000D01*
X108300000Y-58200000D02*
X109800000Y-58200000D01*
X106100000Y-58200000D02*
X108300000Y-58200000D01*
X102000000Y-58200000D02*
X106100000Y-58200000D01*
X96750000Y-40100000D02*
X98900000Y-42250000D01*
X98900000Y-44699620D02*
X98900000Y-42250000D01*
X98900000Y-44699620D02*
X98900380Y-44700000D01*
X96750000Y-40100000D02*
X96750000Y-39750000D01*
X98000000Y-38500000D02*
X102700000Y-38500000D01*
X96750000Y-39750000D02*
X98000000Y-38500000D01*
X50610000Y-76510000D02*
X50600000Y-76500000D01*
X32600000Y-42400000D02*
X40600000Y-42400000D01*
X50400000Y-76400000D02*
X39100000Y-76400000D01*
X31300000Y-49500000D02*
X31300000Y-43700000D01*
X31300000Y-50200000D02*
X31300000Y-50100000D01*
X31300000Y-50100000D02*
X31300000Y-49500000D01*
X31300000Y-43700000D02*
X32600000Y-42400000D01*
X50400000Y-76400000D02*
X50510000Y-76510000D01*
X50510000Y-76510000D02*
X50610000Y-76510000D01*
D26*
X105500000Y-57500000D02*
X111750000Y-57500000D01*
X124300000Y-59000000D02*
X117200000Y-59000000D01*
X117200000Y-59000000D02*
X117000000Y-59000000D01*
X124400000Y-59100000D02*
X124300000Y-59000000D01*
X117000000Y-59000000D02*
X112000000Y-59000000D01*
X103600000Y-61300000D02*
X103800000Y-61100000D01*
X84600000Y-68700000D02*
X85181002Y-68118998D01*
X85181002Y-68118998D02*
X100081002Y-68118998D01*
X100081002Y-68118998D02*
X100300000Y-67900000D01*
X103400000Y-61500000D02*
X103600000Y-61300000D01*
X100900000Y-61500000D02*
X103400000Y-61500000D01*
X100600000Y-61800000D02*
X100900000Y-61500000D01*
X83249160Y-72500000D02*
X72200000Y-72500000D01*
X83249160Y-72500000D02*
X84149160Y-71600000D01*
D27*
X124070002Y-67700000D02*
X121600000Y-67700000D01*
X125470002Y-69100000D02*
X124070002Y-67700000D01*
X127700000Y-72800000D02*
X127700000Y-76100000D01*
X127700000Y-76100000D02*
X127700000Y-76900000D01*
X127700000Y-76900000D02*
X127700000Y-76600000D01*
D26*
X128800000Y-66600000D02*
X128800000Y-69600000D01*
X37700000Y-44300000D02*
X37600000Y-44400000D01*
X45500000Y-44300000D02*
X37700000Y-44300000D01*
X76250000Y-35250000D02*
X78000000Y-33500000D01*
X64250000Y-35250000D02*
X68750000Y-35250000D01*
X68750000Y-35250000D02*
X73750000Y-35250000D01*
X73750000Y-35250000D02*
X76250000Y-35250000D01*
X62500000Y-33500000D02*
X64250000Y-35250000D01*
X39000000Y-78200000D02*
X38500000Y-78200000D01*
X45230000Y-78250000D02*
X45180000Y-78200000D01*
X39000000Y-78200000D02*
X45180000Y-78200000D01*
X37700000Y-77400000D02*
X35800000Y-77400000D01*
X38500000Y-78200000D02*
X37700000Y-77400000D01*
X122400000Y-37300000D02*
X123700000Y-37300000D01*
X123700000Y-37300000D02*
X125750000Y-35250000D01*
X49000000Y-64700000D02*
X51400000Y-64700000D01*
X57500000Y-51750000D02*
X59000000Y-51750000D01*
X59000000Y-51750000D02*
X59750000Y-51000000D01*
X50700000Y-44300000D02*
X59200000Y-44300000D01*
X59200000Y-44300000D02*
X59750000Y-43750000D01*
X45500000Y-44300000D02*
X50700000Y-44300000D01*
X42850000Y-63250000D02*
X40500000Y-63250000D01*
X43100000Y-63500000D02*
X42850000Y-63250000D01*
X72000000Y-75400000D02*
X74400000Y-75400000D01*
X71900000Y-75300000D02*
X72000000Y-75400000D01*
X75800000Y-58400000D02*
X71600000Y-58400000D01*
X76200000Y-58000000D02*
X75800000Y-58400000D01*
X89500000Y-61500000D02*
X89500000Y-60500000D01*
X89300000Y-61700000D02*
X89500000Y-61500000D01*
X89000000Y-61700000D02*
X89300000Y-61700000D01*
X81900000Y-61700000D02*
X89000000Y-61700000D01*
X81800000Y-59000000D02*
X90600000Y-59000000D01*
X81700000Y-59100000D02*
X81800000Y-59000000D01*
X89500000Y-60500000D02*
X90600000Y-59400000D01*
X90600000Y-59400000D02*
X90600000Y-59000000D01*
X90600000Y-59000000D02*
X90600000Y-57500000D01*
X100900000Y-57200000D02*
X100900000Y-60400000D01*
X101200000Y-56900000D02*
X100900000Y-57200000D01*
X103485000Y-32615000D02*
X104460000Y-32615000D01*
X103400000Y-32700000D02*
X103485000Y-32615000D01*
X103400000Y-38800000D02*
X103400000Y-32700000D01*
X104100000Y-39500000D02*
X103400000Y-38800000D01*
X113414000Y-40900000D02*
X113214000Y-40700000D01*
X113414000Y-40900000D02*
X116700000Y-40900000D01*
X122400000Y-38700000D02*
X122400000Y-37300000D01*
X120200000Y-40900000D02*
X122400000Y-38700000D01*
X116700000Y-40900000D02*
X119700000Y-40900000D01*
X119700000Y-40900000D02*
X120200000Y-40900000D01*
X90400000Y-48800000D02*
X90400000Y-47700000D01*
X90700000Y-49100000D02*
X90400000Y-48800000D01*
X66250000Y-46000000D02*
X66500000Y-46000000D01*
X76500000Y-48500000D02*
X75750000Y-48500000D01*
X67500000Y-48500000D02*
X66250000Y-48500000D01*
X68500000Y-48500000D02*
X67500000Y-48500000D01*
X71125000Y-48625000D02*
X70250000Y-47750000D01*
X71125000Y-48625000D02*
X70250000Y-49500000D01*
X71125000Y-48625000D02*
X72000000Y-49500000D01*
X71125000Y-48625000D02*
X72000000Y-47750000D01*
X71125000Y-48625000D02*
X71125000Y-47875000D01*
X71125000Y-47875000D02*
X71000000Y-47750000D01*
X71125000Y-48625000D02*
X71125000Y-49375000D01*
X71125000Y-49375000D02*
X71250000Y-49500000D01*
X71125000Y-48625000D02*
X72125000Y-48625000D01*
X72125000Y-48625000D02*
X72250000Y-48750000D01*
X71125000Y-48625000D02*
X70125000Y-48625000D01*
X70125000Y-48625000D02*
X70000000Y-48750000D01*
X71125000Y-48625000D02*
X71250000Y-48750000D01*
X48250000Y-55250000D02*
X47250000Y-56250000D01*
X48250000Y-55250000D02*
X47250000Y-54250000D01*
X48250000Y-55250000D02*
X49250000Y-56250000D01*
X48250000Y-55250000D02*
X49250000Y-54250000D01*
X48250000Y-55250000D02*
X48250000Y-56250000D01*
X48250000Y-55250000D02*
X48250000Y-54250000D01*
X48250000Y-55250000D02*
X47250000Y-55250000D01*
X48250000Y-55250000D02*
X49250000Y-55250000D01*
X109400000Y-66000000D02*
X111900000Y-66000000D01*
X76900000Y-66000000D02*
X109400000Y-66000000D01*
X109400000Y-66000000D02*
X109500000Y-66000000D01*
X76700000Y-66200000D02*
X76900000Y-66000000D01*
X71500000Y-53100000D02*
X72700000Y-53100000D01*
X71700000Y-65600000D02*
X71700000Y-65700000D01*
X72500000Y-64800000D02*
X71700000Y-65600000D01*
X73200000Y-64800000D02*
X72500000Y-64800000D01*
X73400000Y-64600000D02*
X73200000Y-64800000D01*
D28*
X129000000Y-42750520D02*
X129000000Y-54749480D01*
D29*
X128450520Y-43300000D02*
X129000000Y-42750520D01*
X120000000Y-43300000D02*
X128450520Y-43300000D01*
X119600000Y-43700000D02*
X120000000Y-43300000D01*
X119700000Y-54700000D02*
X119749480Y-54749480D01*
X119749480Y-54749480D02*
X129000000Y-54749480D01*
D25*
X66200000Y-70600000D02*
X66200000Y-70100000D01*
X65700000Y-71100000D02*
X66200000Y-70600000D01*
X63100000Y-71100000D02*
X65700000Y-71100000D01*
D26*
X48700000Y-59700000D02*
X49900000Y-59700000D01*
X96000000Y-48700000D02*
X96000000Y-48800000D01*
X95700000Y-48400000D02*
X96000000Y-48700000D01*
X95700000Y-47700000D02*
X95700000Y-48400000D01*
X95700000Y-43100000D02*
X95700000Y-47700000D01*
X95700000Y-34100000D02*
X95700000Y-43100000D01*
X100000000Y-56100000D02*
X100100000Y-56000000D01*
X87700000Y-56100000D02*
X88700000Y-56100000D01*
X86500000Y-57300000D02*
X87700000Y-56100000D01*
X88700000Y-56100000D02*
X100000000Y-56100000D01*
X103600000Y-53900000D02*
X103700000Y-53800000D01*
X100800000Y-53900000D02*
X103600000Y-53900000D01*
X100600000Y-54100000D02*
X100800000Y-53900000D01*
X86400000Y-60400000D02*
X81700000Y-60400000D01*
X109500000Y-63600000D02*
X113300000Y-63600000D01*
X109500000Y-63600000D02*
X91500000Y-63600000D01*
X113300000Y-63600000D02*
X113500000Y-63400000D01*
X62400000Y-63600000D02*
X91500000Y-63600000D01*
X91500000Y-63600000D02*
X91600000Y-63600000D01*
X61800000Y-64200000D02*
X62400000Y-63600000D01*
X102300000Y-53400000D02*
X103200000Y-53400000D01*
X103200000Y-53400000D02*
X103400000Y-53200000D01*
X98200000Y-55600000D02*
X99500000Y-55600000D01*
X86400000Y-55600000D02*
X88300000Y-55600000D01*
X84800000Y-57200000D02*
X86400000Y-55600000D01*
X98200000Y-55600000D02*
X88300000Y-55600000D01*
X100600000Y-53400000D02*
X102300000Y-53400000D01*
X102300000Y-53400000D02*
X102400000Y-53400000D01*
X99500000Y-55600000D02*
X99800000Y-55300000D01*
X81700000Y-61100000D02*
X84500000Y-61100000D01*
X109500000Y-64000000D02*
X110500000Y-64000000D01*
X66200000Y-64000000D02*
X91600000Y-64000000D01*
X65500000Y-64700000D02*
X66200000Y-64000000D01*
X91600000Y-64000000D02*
X109500000Y-64000000D01*
X110700000Y-64200000D02*
X112800000Y-64200000D01*
X110500000Y-64000000D02*
X110700000Y-64200000D01*
X109300000Y-42600000D02*
X109300000Y-43000000D01*
X109300000Y-41900000D02*
X109300000Y-42600000D01*
X109300000Y-40400000D02*
X109300000Y-41900000D01*
X109300000Y-37000000D02*
X109300000Y-40400000D01*
X104900000Y-39500000D02*
X104900000Y-41300000D01*
X104900000Y-37000000D02*
X104900000Y-39500000D01*
X107000000Y-37100000D02*
X107000000Y-42100000D01*
X107100000Y-37000000D02*
X107000000Y-37100000D01*
X109400000Y-45100000D02*
X109400000Y-46500000D01*
X110500000Y-44000000D02*
X109400000Y-45100000D01*
X110500000Y-41300000D02*
X110500000Y-44000000D01*
X110500000Y-38500000D02*
X110500000Y-41300000D01*
X110500000Y-36100000D02*
X110500000Y-38500000D01*
D29*
X123500000Y-80000000D02*
X123600000Y-80000000D01*
X60900000Y-80000000D02*
X123500000Y-80000000D01*
X125800000Y-64000000D02*
X130800000Y-64000000D01*
X124400000Y-65400000D02*
X125800000Y-64000000D01*
X123600000Y-80000000D02*
X124100000Y-79500000D01*
X135000000Y-60800000D02*
X135000000Y-61300000D01*
X135000000Y-46900000D02*
X135000000Y-60800000D01*
X134200000Y-46100000D02*
X135000000Y-46900000D01*
X60900000Y-80000000D02*
X43700000Y-80000000D01*
X43700000Y-80000000D02*
X43600000Y-79900000D01*
X60900000Y-70000000D02*
X64770000Y-70000000D01*
D28*
X41700000Y-81500000D02*
X41600000Y-81600000D01*
X41700000Y-81500000D02*
X42000000Y-81500000D01*
D27*
X42000000Y-81500000D02*
X125370002Y-81500000D01*
X125370002Y-81500000D02*
X125600000Y-81270002D01*
X39750000Y-81600000D02*
X39600000Y-81600000D01*
X39600000Y-81600000D02*
X36750000Y-78750000D01*
X41600000Y-81600000D02*
X39750000Y-81600000D01*
X39750000Y-81600000D02*
X39500000Y-81600000D01*
X36750000Y-78750000D02*
X33250000Y-78750000D01*
D28*
X36000000Y-50700000D02*
X33200000Y-50700000D01*
X43700000Y-50700000D02*
X36000000Y-50700000D01*
X43700000Y-50700000D02*
X46700000Y-50700000D01*
D25*
X49800000Y-50600000D02*
X49800000Y-50700000D01*
D28*
X46700000Y-50700000D02*
X49800000Y-50700000D01*
X49800000Y-50700000D02*
X53400000Y-50700000D01*
X53400000Y-50700000D02*
X57300000Y-46800000D01*
X57300000Y-46800000D02*
X58600000Y-46800000D01*
X59300000Y-60700000D02*
X66100000Y-60700000D01*
X59100000Y-60500000D02*
X59300000Y-60700000D01*
X66100000Y-60700000D02*
X66200000Y-60600000D01*
X66500000Y-44100000D02*
X69500000Y-44100000D01*
X69500000Y-44100000D02*
X72700000Y-44100000D01*
X72700000Y-44100000D02*
X75600000Y-44100000D01*
X79400000Y-40300000D02*
X81100000Y-40300000D01*
X75600000Y-44100000D02*
X79400000Y-40300000D01*
X66500000Y-44100000D02*
X65300000Y-44100000D01*
X61800000Y-40600000D02*
X59300000Y-40600000D01*
X65300000Y-44100000D02*
X61800000Y-40600000D01*
D26*
X55000000Y-67100000D02*
X52100000Y-67100000D01*
X55000000Y-67100000D02*
X67100000Y-67100000D01*
X67100000Y-67100000D02*
X67500000Y-66700000D01*
X67500000Y-66700000D02*
X72100000Y-66700000D01*
X72100000Y-66700000D02*
X73200000Y-65600000D01*
X91400000Y-65600000D02*
X73200000Y-65600000D01*
X52100000Y-67100000D02*
X51400000Y-67800000D01*
X109500000Y-65600000D02*
X110500000Y-65600000D01*
X91400000Y-65600000D02*
X109500000Y-65600000D01*
X110500000Y-65600000D02*
X110700000Y-65400000D01*
X91400000Y-65600000D02*
X91500000Y-65600000D01*
X86900000Y-50400000D02*
X96900000Y-50400000D01*
X84200000Y-50100000D02*
X84500000Y-50400000D01*
X84500000Y-50400000D02*
X86900000Y-50400000D01*
X96900000Y-50400000D02*
X97100000Y-50200000D01*
X81700000Y-38300000D02*
X83400000Y-38300000D01*
X83400000Y-38300000D02*
X83900000Y-38800000D01*
X77200000Y-38300000D02*
X81700000Y-38300000D01*
X81700000Y-38300000D02*
X81750000Y-38300000D01*
X86800000Y-51200000D02*
X96500000Y-51200000D01*
X83500000Y-51200000D02*
X86800000Y-51200000D01*
X96500000Y-51200000D02*
X96700000Y-51400000D01*
X81700000Y-39400000D02*
X82800000Y-39400000D01*
X82800000Y-39400000D02*
X83000000Y-39600000D01*
X66000000Y-39400000D02*
X81700000Y-39400000D01*
X81700000Y-39400000D02*
X81750000Y-39400000D01*
X65300000Y-40100000D02*
X66000000Y-39400000D01*
X100200000Y-66900000D02*
X100000000Y-66700000D01*
X102200000Y-67500000D02*
X101800000Y-67100000D01*
X101800000Y-67100000D02*
X101700000Y-67000000D01*
X101700000Y-67000000D02*
X101600000Y-66900000D01*
X101600000Y-66900000D02*
X100200000Y-66900000D01*
X119300000Y-67900000D02*
X118900000Y-67500000D01*
X118900000Y-67500000D02*
X103300000Y-67500000D01*
X103300000Y-67500000D02*
X102200000Y-67500000D01*
X98100000Y-59900000D02*
X98100000Y-57700000D01*
X100000000Y-66700000D02*
X98000000Y-66700000D01*
X79600000Y-69800000D02*
X75100000Y-69800000D01*
X120149160Y-71700000D02*
X118249160Y-69800000D01*
X79600000Y-69800000D02*
X118249160Y-69800000D01*
X74700000Y-69400000D02*
X74700000Y-67200000D01*
X75100000Y-69800000D02*
X74700000Y-69400000D01*
X100300000Y-67300000D02*
X98800000Y-67300000D01*
X98700000Y-60300000D02*
X98700000Y-57400000D01*
X102000000Y-67900000D02*
X101400000Y-67300000D01*
X101400000Y-67300000D02*
X100300000Y-67300000D01*
X100300000Y-67300000D02*
X100200000Y-67300000D01*
X102600000Y-68100000D02*
X102400000Y-67900000D01*
X103000000Y-68100000D02*
X102600000Y-68100000D01*
X105800000Y-68100000D02*
X103000000Y-68100000D01*
X110400000Y-68100000D02*
X105800000Y-68100000D01*
X102400000Y-67900000D02*
X102000000Y-67900000D01*
X79600000Y-70200000D02*
X74600000Y-70200000D01*
X111149160Y-71600000D02*
X109749160Y-70200000D01*
X79600000Y-70200000D02*
X109749160Y-70200000D01*
X74100000Y-69700000D02*
X74100000Y-66900000D01*
X74600000Y-70200000D02*
X74100000Y-69700000D01*
X77300000Y-63000000D02*
X77300000Y-62900000D01*
X77800000Y-63000000D02*
X77300000Y-63000000D01*
X81700000Y-63000000D02*
X77800000Y-63000000D01*
X86200000Y-55100000D02*
X95600000Y-55100000D01*
X95600000Y-55100000D02*
X95900000Y-54800000D01*
X86300000Y-55100000D02*
X86200000Y-55100000D01*
X86200000Y-55100000D02*
X81800000Y-55100000D01*
X75100000Y-54300000D02*
X75900000Y-55100000D01*
X75900000Y-55100000D02*
X81800000Y-55100000D01*
X86800000Y-49900000D02*
X96400000Y-49900000D01*
X104400000Y-49600000D02*
X104700000Y-49900000D01*
X96700000Y-49600000D02*
X104400000Y-49600000D01*
X96400000Y-49900000D02*
X96700000Y-49600000D01*
X84900000Y-49900000D02*
X86800000Y-49900000D01*
X86800000Y-49900000D02*
X86900000Y-49900000D01*
X84800000Y-49800000D02*
X84900000Y-49900000D01*
X81700000Y-37700000D02*
X83700000Y-37700000D01*
X83700000Y-37700000D02*
X84200000Y-38200000D01*
X55000000Y-37700000D02*
X81700000Y-37700000D01*
X81700000Y-37700000D02*
X81750000Y-37700000D01*
X54400000Y-38300000D02*
X55000000Y-37700000D01*
X86800000Y-50800000D02*
X108900000Y-50800000D01*
X83800000Y-50600000D02*
X84000000Y-50800000D01*
X84000000Y-50800000D02*
X86800000Y-50800000D01*
X108900000Y-50800000D02*
X109300000Y-51200000D01*
X81750000Y-38900000D02*
X83200000Y-38900000D01*
X42900000Y-38900000D02*
X81750000Y-38900000D01*
X83200000Y-38900000D02*
X83300000Y-39000000D01*
X101949900Y-71600000D02*
X100949900Y-70600000D01*
X100949900Y-70600000D02*
X74300000Y-70600000D01*
X74300000Y-70600000D02*
X73500000Y-69800000D01*
X73500000Y-69800000D02*
X73500000Y-67400000D01*
X73500000Y-68000000D02*
X73500000Y-67400000D01*
X79600000Y-70600000D02*
X74300000Y-70600000D01*
X79600000Y-70600000D02*
X100949900Y-70600000D01*
X73500000Y-69800000D02*
X73500000Y-68000000D01*
X74300000Y-70600000D02*
X73500000Y-69800000D01*
X101500000Y-62200000D02*
X102900000Y-62200000D01*
X101200000Y-62400000D02*
X101400000Y-62200000D01*
X101400000Y-62200000D02*
X101500000Y-62200000D01*
X100600000Y-68500000D02*
X101200000Y-67900000D01*
X93700000Y-68500000D02*
X100600000Y-68500000D01*
X93500000Y-68700000D02*
X93700000Y-68500000D01*
X102900000Y-62200000D02*
X103000000Y-62100000D01*
X75250000Y-71000000D02*
X74100000Y-71000000D01*
X79750000Y-71000000D02*
X75250000Y-71000000D01*
X72900000Y-69800000D02*
X72900000Y-67800000D01*
X74100000Y-71000000D02*
X72900000Y-69800000D01*
X79750000Y-71000000D02*
X92549160Y-71000000D01*
X79600000Y-71000000D02*
X79750000Y-71000000D01*
X92549160Y-71000000D02*
X93149160Y-71600000D01*
X57800000Y-61600000D02*
X54100000Y-61600000D01*
X80700000Y-61600000D02*
X57800000Y-61600000D01*
X80800000Y-61600000D02*
X80700000Y-61600000D01*
X79800000Y-62200000D02*
X81700000Y-62200000D01*
X104300000Y-63000000D02*
X104300000Y-62800000D01*
X104100000Y-63200000D02*
X104300000Y-63000000D01*
X82700000Y-63200000D02*
X104100000Y-63200000D01*
X81700000Y-62200000D02*
X82700000Y-63200000D01*
X78500000Y-62200000D02*
X79800000Y-62200000D01*
X79800000Y-62200000D02*
X79900000Y-62200000D01*
X52200000Y-60900000D02*
X53500000Y-62200000D01*
X53500000Y-62200000D02*
X78500000Y-62200000D01*
G36*
X119123000Y-37873000D02*
X111877000Y-37873000D01*
X111877000Y-28185000D01*
X119123000Y-28185000D01*
X119123000Y-37873000D01*
X119123000Y-37873000D01*
G37*
X119123000Y-37873000D02*
X111877000Y-37873000D01*
X111877000Y-28185000D01*
X119123000Y-28185000D01*
X119123000Y-37873000D01*
G36*
X31379057Y-28319329D02*
X30721638Y-28975602D01*
X30365407Y-29833502D01*
X30364596Y-30762422D01*
X30719329Y-31620943D01*
X31375602Y-32278362D01*
X32233502Y-32634593D01*
X33162422Y-32635404D01*
X34020943Y-32280671D01*
X34678362Y-31624398D01*
X35034593Y-30766498D01*
X35035404Y-29837578D01*
X34680671Y-28979057D01*
X34024398Y-28321638D01*
X33695337Y-28185000D01*
X83373000Y-28185000D01*
X83373000Y-36938000D01*
X55000000Y-36938000D01*
X54708395Y-36996004D01*
X54461185Y-37161185D01*
X54195754Y-37426616D01*
X53899235Y-37549135D01*
X53650010Y-37797925D01*
X53514964Y-38123152D01*
X53514951Y-38138000D01*
X43373152Y-38138000D01*
X43076848Y-38014964D01*
X42724697Y-38014657D01*
X42399235Y-38149135D01*
X42150010Y-38397925D01*
X42014964Y-38723152D01*
X42014657Y-39075303D01*
X42149135Y-39400765D01*
X42397925Y-39649990D01*
X42723152Y-39785036D01*
X42776560Y-39785083D01*
X42776560Y-41516000D01*
X42787568Y-41574500D01*
X41049382Y-41574500D01*
X40786743Y-41465443D01*
X40414888Y-41465118D01*
X40150165Y-41574500D01*
X32600005Y-41574500D01*
X32600000Y-41574499D01*
X32284095Y-41637337D01*
X32016283Y-41816283D01*
X32016281Y-41816286D01*
X30716283Y-43116283D01*
X30537337Y-43384094D01*
X30481941Y-43662593D01*
X30474500Y-43700000D01*
X30474500Y-75550000D01*
X30537337Y-75865906D01*
X30716283Y-76133717D01*
X31566281Y-76983714D01*
X31566283Y-76983717D01*
X31785463Y-77130168D01*
X31834095Y-77162663D01*
X32150000Y-77225501D01*
X32150005Y-77225500D01*
X41373000Y-77225500D01*
X41373000Y-80203000D01*
X40178656Y-80203000D01*
X37737828Y-77762172D01*
X37284609Y-77459340D01*
X36750000Y-77353000D01*
X33250000Y-77353000D01*
X32715391Y-77459340D01*
X32262172Y-77762172D01*
X31959340Y-78215391D01*
X31853000Y-78750000D01*
X31959340Y-79284609D01*
X32262172Y-79737828D01*
X32715391Y-80040660D01*
X32946147Y-80086560D01*
X32214000Y-80086560D01*
X31978683Y-80130838D01*
X31762559Y-80269910D01*
X31617569Y-80482110D01*
X31566560Y-80734000D01*
X31566560Y-82766000D01*
X31610838Y-83001317D01*
X31749910Y-83217441D01*
X31962110Y-83362431D01*
X32214000Y-83413440D01*
X34246000Y-83413440D01*
X34481317Y-83369162D01*
X34697441Y-83230090D01*
X34842431Y-83017890D01*
X34893440Y-82766000D01*
X34893440Y-80734000D01*
X34849162Y-80498683D01*
X34710090Y-80282559D01*
X34511693Y-80147000D01*
X36171344Y-80147000D01*
X38310804Y-82286460D01*
X38512172Y-82587828D01*
X38965391Y-82890660D01*
X39500000Y-82997000D01*
X41373000Y-82997000D01*
X41373000Y-85315000D01*
X30185000Y-85315000D01*
X30185000Y-36984000D01*
X31566560Y-36984000D01*
X31566560Y-39016000D01*
X31610838Y-39251317D01*
X31749910Y-39467441D01*
X31962110Y-39612431D01*
X32214000Y-39663440D01*
X34246000Y-39663440D01*
X34481317Y-39619162D01*
X34697441Y-39480090D01*
X34842431Y-39267890D01*
X34893440Y-39016000D01*
X34893440Y-36984000D01*
X34849162Y-36748683D01*
X34710090Y-36532559D01*
X34497890Y-36387569D01*
X34246000Y-36336560D01*
X32214000Y-36336560D01*
X31978683Y-36380838D01*
X31762559Y-36519910D01*
X31617569Y-36732110D01*
X31566560Y-36984000D01*
X30185000Y-36984000D01*
X30185000Y-32734000D01*
X42776560Y-32734000D01*
X42776560Y-34766000D01*
X42820838Y-35001317D01*
X42959910Y-35217441D01*
X43172110Y-35362431D01*
X43424000Y-35413440D01*
X45456000Y-35413440D01*
X45691317Y-35369162D01*
X45907441Y-35230090D01*
X45995713Y-35100900D01*
X46043563Y-35148834D01*
X46650155Y-35400713D01*
X47306963Y-35401286D01*
X47913995Y-35150466D01*
X48250179Y-34814868D01*
X48583563Y-35148834D01*
X49190155Y-35400713D01*
X49846963Y-35401286D01*
X50453995Y-35150466D01*
X50790179Y-34814868D01*
X51123563Y-35148834D01*
X51730155Y-35400713D01*
X52386963Y-35401286D01*
X52993995Y-35150466D01*
X53458834Y-34686437D01*
X53710713Y-34079845D01*
X53711286Y-33423037D01*
X53460466Y-32816005D01*
X53428517Y-32784000D01*
X65626560Y-32784000D01*
X65626560Y-34816000D01*
X65670838Y-35051317D01*
X65809910Y-35267441D01*
X66022110Y-35412431D01*
X66274000Y-35463440D01*
X68306000Y-35463440D01*
X68541317Y-35419162D01*
X68757441Y-35280090D01*
X68845713Y-35150900D01*
X68893563Y-35198834D01*
X69500155Y-35450713D01*
X70156963Y-35451286D01*
X70763995Y-35200466D01*
X71100179Y-34864868D01*
X71433563Y-35198834D01*
X72040155Y-35450713D01*
X72696963Y-35451286D01*
X73303995Y-35200466D01*
X73640179Y-34864868D01*
X73973563Y-35198834D01*
X74580155Y-35450713D01*
X75236963Y-35451286D01*
X75843995Y-35200466D01*
X76308834Y-34736437D01*
X76560713Y-34129845D01*
X76561286Y-33473037D01*
X76310466Y-32866005D01*
X75846437Y-32401166D01*
X75239845Y-32149287D01*
X74583037Y-32148714D01*
X73976005Y-32399534D01*
X73639821Y-32735132D01*
X73306437Y-32401166D01*
X72699845Y-32149287D01*
X72043037Y-32148714D01*
X71436005Y-32399534D01*
X71099821Y-32735132D01*
X70766437Y-32401166D01*
X70159845Y-32149287D01*
X69503037Y-32148714D01*
X68896005Y-32399534D01*
X68845579Y-32449872D01*
X68770090Y-32332559D01*
X68557890Y-32187569D01*
X68306000Y-32136560D01*
X66274000Y-32136560D01*
X66038683Y-32180838D01*
X65822559Y-32319910D01*
X65677569Y-32532110D01*
X65626560Y-32784000D01*
X53428517Y-32784000D01*
X52996437Y-32351166D01*
X52389845Y-32099287D01*
X51733037Y-32098714D01*
X51126005Y-32349534D01*
X50789821Y-32685132D01*
X50456437Y-32351166D01*
X49849845Y-32099287D01*
X49193037Y-32098714D01*
X48586005Y-32349534D01*
X48249821Y-32685132D01*
X47916437Y-32351166D01*
X47309845Y-32099287D01*
X46653037Y-32098714D01*
X46046005Y-32349534D01*
X45995579Y-32399872D01*
X45920090Y-32282559D01*
X45707890Y-32137569D01*
X45456000Y-32086560D01*
X43424000Y-32086560D01*
X43188683Y-32130838D01*
X42972559Y-32269910D01*
X42827569Y-32482110D01*
X42776560Y-32734000D01*
X30185000Y-32734000D01*
X30185000Y-28185000D01*
X31704159Y-28185000D01*
X31379057Y-28319329D01*
X31379057Y-28319329D01*
G37*
X31379057Y-28319329D02*
X30721638Y-28975602D01*
X30365407Y-29833502D01*
X30364596Y-30762422D01*
X30719329Y-31620943D01*
X31375602Y-32278362D01*
X32233502Y-32634593D01*
X33162422Y-32635404D01*
X34020943Y-32280671D01*
X34678362Y-31624398D01*
X35034593Y-30766498D01*
X35035404Y-29837578D01*
X34680671Y-28979057D01*
X34024398Y-28321638D01*
X33695337Y-28185000D01*
X83373000Y-28185000D01*
X83373000Y-36938000D01*
X55000000Y-36938000D01*
X54708395Y-36996004D01*
X54461185Y-37161185D01*
X54195754Y-37426616D01*
X53899235Y-37549135D01*
X53650010Y-37797925D01*
X53514964Y-38123152D01*
X53514951Y-38138000D01*
X43373152Y-38138000D01*
X43076848Y-38014964D01*
X42724697Y-38014657D01*
X42399235Y-38149135D01*
X42150010Y-38397925D01*
X42014964Y-38723152D01*
X42014657Y-39075303D01*
X42149135Y-39400765D01*
X42397925Y-39649990D01*
X42723152Y-39785036D01*
X42776560Y-39785083D01*
X42776560Y-41516000D01*
X42787568Y-41574500D01*
X41049382Y-41574500D01*
X40786743Y-41465443D01*
X40414888Y-41465118D01*
X40150165Y-41574500D01*
X32600005Y-41574500D01*
X32600000Y-41574499D01*
X32284095Y-41637337D01*
X32016283Y-41816283D01*
X32016281Y-41816286D01*
X30716283Y-43116283D01*
X30537337Y-43384094D01*
X30481941Y-43662593D01*
X30474500Y-43700000D01*
X30474500Y-75550000D01*
X30537337Y-75865906D01*
X30716283Y-76133717D01*
X31566281Y-76983714D01*
X31566283Y-76983717D01*
X31785463Y-77130168D01*
X31834095Y-77162663D01*
X32150000Y-77225501D01*
X32150005Y-77225500D01*
X41373000Y-77225500D01*
X41373000Y-80203000D01*
X40178656Y-80203000D01*
X37737828Y-77762172D01*
X37284609Y-77459340D01*
X36750000Y-77353000D01*
X33250000Y-77353000D01*
X32715391Y-77459340D01*
X32262172Y-77762172D01*
X31959340Y-78215391D01*
X31853000Y-78750000D01*
X31959340Y-79284609D01*
X32262172Y-79737828D01*
X32715391Y-80040660D01*
X32946147Y-80086560D01*
X32214000Y-80086560D01*
X31978683Y-80130838D01*
X31762559Y-80269910D01*
X31617569Y-80482110D01*
X31566560Y-80734000D01*
X31566560Y-82766000D01*
X31610838Y-83001317D01*
X31749910Y-83217441D01*
X31962110Y-83362431D01*
X32214000Y-83413440D01*
X34246000Y-83413440D01*
X34481317Y-83369162D01*
X34697441Y-83230090D01*
X34842431Y-83017890D01*
X34893440Y-82766000D01*
X34893440Y-80734000D01*
X34849162Y-80498683D01*
X34710090Y-80282559D01*
X34511693Y-80147000D01*
X36171344Y-80147000D01*
X38310804Y-82286460D01*
X38512172Y-82587828D01*
X38965391Y-82890660D01*
X39500000Y-82997000D01*
X41373000Y-82997000D01*
X41373000Y-85315000D01*
X30185000Y-85315000D01*
X30185000Y-36984000D01*
X31566560Y-36984000D01*
X31566560Y-39016000D01*
X31610838Y-39251317D01*
X31749910Y-39467441D01*
X31962110Y-39612431D01*
X32214000Y-39663440D01*
X34246000Y-39663440D01*
X34481317Y-39619162D01*
X34697441Y-39480090D01*
X34842431Y-39267890D01*
X34893440Y-39016000D01*
X34893440Y-36984000D01*
X34849162Y-36748683D01*
X34710090Y-36532559D01*
X34497890Y-36387569D01*
X34246000Y-36336560D01*
X32214000Y-36336560D01*
X31978683Y-36380838D01*
X31762559Y-36519910D01*
X31617569Y-36732110D01*
X31566560Y-36984000D01*
X30185000Y-36984000D01*
X30185000Y-32734000D01*
X42776560Y-32734000D01*
X42776560Y-34766000D01*
X42820838Y-35001317D01*
X42959910Y-35217441D01*
X43172110Y-35362431D01*
X43424000Y-35413440D01*
X45456000Y-35413440D01*
X45691317Y-35369162D01*
X45907441Y-35230090D01*
X45995713Y-35100900D01*
X46043563Y-35148834D01*
X46650155Y-35400713D01*
X47306963Y-35401286D01*
X47913995Y-35150466D01*
X48250179Y-34814868D01*
X48583563Y-35148834D01*
X49190155Y-35400713D01*
X49846963Y-35401286D01*
X50453995Y-35150466D01*
X50790179Y-34814868D01*
X51123563Y-35148834D01*
X51730155Y-35400713D01*
X52386963Y-35401286D01*
X52993995Y-35150466D01*
X53458834Y-34686437D01*
X53710713Y-34079845D01*
X53711286Y-33423037D01*
X53460466Y-32816005D01*
X53428517Y-32784000D01*
X65626560Y-32784000D01*
X65626560Y-34816000D01*
X65670838Y-35051317D01*
X65809910Y-35267441D01*
X66022110Y-35412431D01*
X66274000Y-35463440D01*
X68306000Y-35463440D01*
X68541317Y-35419162D01*
X68757441Y-35280090D01*
X68845713Y-35150900D01*
X68893563Y-35198834D01*
X69500155Y-35450713D01*
X70156963Y-35451286D01*
X70763995Y-35200466D01*
X71100179Y-34864868D01*
X71433563Y-35198834D01*
X72040155Y-35450713D01*
X72696963Y-35451286D01*
X73303995Y-35200466D01*
X73640179Y-34864868D01*
X73973563Y-35198834D01*
X74580155Y-35450713D01*
X75236963Y-35451286D01*
X75843995Y-35200466D01*
X76308834Y-34736437D01*
X76560713Y-34129845D01*
X76561286Y-33473037D01*
X76310466Y-32866005D01*
X75846437Y-32401166D01*
X75239845Y-32149287D01*
X74583037Y-32148714D01*
X73976005Y-32399534D01*
X73639821Y-32735132D01*
X73306437Y-32401166D01*
X72699845Y-32149287D01*
X72043037Y-32148714D01*
X71436005Y-32399534D01*
X71099821Y-32735132D01*
X70766437Y-32401166D01*
X70159845Y-32149287D01*
X69503037Y-32148714D01*
X68896005Y-32399534D01*
X68845579Y-32449872D01*
X68770090Y-32332559D01*
X68557890Y-32187569D01*
X68306000Y-32136560D01*
X66274000Y-32136560D01*
X66038683Y-32180838D01*
X65822559Y-32319910D01*
X65677569Y-32532110D01*
X65626560Y-32784000D01*
X53428517Y-32784000D01*
X52996437Y-32351166D01*
X52389845Y-32099287D01*
X51733037Y-32098714D01*
X51126005Y-32349534D01*
X50789821Y-32685132D01*
X50456437Y-32351166D01*
X49849845Y-32099287D01*
X49193037Y-32098714D01*
X48586005Y-32349534D01*
X48249821Y-32685132D01*
X47916437Y-32351166D01*
X47309845Y-32099287D01*
X46653037Y-32098714D01*
X46046005Y-32349534D01*
X45995579Y-32399872D01*
X45920090Y-32282559D01*
X45707890Y-32137569D01*
X45456000Y-32086560D01*
X43424000Y-32086560D01*
X43188683Y-32130838D01*
X42972559Y-32269910D01*
X42827569Y-32482110D01*
X42776560Y-32734000D01*
X30185000Y-32734000D01*
X30185000Y-28185000D01*
X31704159Y-28185000D01*
X31379057Y-28319329D01*
G36*
X82497925Y-40349990D02*
X82823152Y-40485036D01*
X83175303Y-40485343D01*
X83373000Y-40403656D01*
X83373000Y-49783385D01*
X83355321Y-49825961D01*
X83299235Y-49849135D01*
X83050010Y-50097925D01*
X82914964Y-50423152D01*
X82914868Y-50533355D01*
X82750010Y-50697925D01*
X82614964Y-51023152D01*
X82614657Y-51375303D01*
X82749135Y-51700765D01*
X82997925Y-51949990D01*
X83323152Y-52085036D01*
X83373000Y-52085079D01*
X83373000Y-54338000D01*
X77053481Y-54338000D01*
X77159870Y-54081787D01*
X77160229Y-53670019D01*
X77002984Y-53289457D01*
X76712074Y-52998039D01*
X76331787Y-52840130D01*
X75920019Y-52839771D01*
X75539457Y-52997016D01*
X75248039Y-53287926D01*
X75195318Y-53414893D01*
X74924697Y-53414657D01*
X74599235Y-53549135D01*
X74350010Y-53797925D01*
X74214964Y-54123152D01*
X74214657Y-54475303D01*
X74349135Y-54800765D01*
X74597925Y-55049990D01*
X74896225Y-55173855D01*
X75361185Y-55638815D01*
X75608395Y-55803996D01*
X75900000Y-55862000D01*
X76873000Y-55862000D01*
X76873000Y-60838000D01*
X67295659Y-60838000D01*
X67343000Y-60600000D01*
X67255994Y-60162593D01*
X67008223Y-59791777D01*
X66637407Y-59544006D01*
X66200000Y-59457000D01*
X65762593Y-59544006D01*
X65743146Y-59557000D01*
X59706515Y-59557000D01*
X59537407Y-59444006D01*
X59100000Y-59357000D01*
X58662593Y-59444006D01*
X58291777Y-59691777D01*
X58044006Y-60062593D01*
X57957000Y-60500000D01*
X58024233Y-60838000D01*
X54573152Y-60838000D01*
X54280794Y-60716603D01*
X54284870Y-60706787D01*
X54285229Y-60295019D01*
X54127984Y-59914457D01*
X53837074Y-59623039D01*
X53456787Y-59465130D01*
X53045019Y-59464771D01*
X52664457Y-59622016D01*
X52373039Y-59912926D01*
X52330686Y-60014924D01*
X52024697Y-60014657D01*
X51699235Y-60149135D01*
X51450010Y-60397925D01*
X51314964Y-60723152D01*
X51314657Y-61075303D01*
X51449135Y-61400765D01*
X51697925Y-61649990D01*
X51996224Y-61773855D01*
X52961185Y-62738816D01*
X53087404Y-62823152D01*
X53208395Y-62903996D01*
X53500000Y-62962000D01*
X54373000Y-62962000D01*
X54373000Y-64373000D01*
X41500000Y-64373000D01*
X41450590Y-64383006D01*
X41408965Y-64411447D01*
X41381685Y-64453841D01*
X41373000Y-64500000D01*
X41373000Y-75574500D01*
X34893440Y-75574500D01*
X34893440Y-73734000D01*
X34849162Y-73498683D01*
X34710090Y-73282559D01*
X34497890Y-73137569D01*
X34246000Y-73086560D01*
X32214000Y-73086560D01*
X32125500Y-73103212D01*
X32125500Y-69395518D01*
X32214000Y-69413440D01*
X34246000Y-69413440D01*
X34481317Y-69369162D01*
X34697441Y-69230090D01*
X34842431Y-69017890D01*
X34893440Y-68766000D01*
X34893440Y-66734000D01*
X34849162Y-66498683D01*
X34710090Y-66282559D01*
X34497890Y-66137569D01*
X34246000Y-66086560D01*
X32214000Y-66086560D01*
X32125500Y-66103212D01*
X32125500Y-59285112D01*
X46965118Y-59285112D01*
X47107121Y-59628784D01*
X47369832Y-59891955D01*
X47713257Y-60034557D01*
X47880520Y-60034703D01*
X47949135Y-60200765D01*
X48197925Y-60449990D01*
X48523152Y-60585036D01*
X48875303Y-60585343D01*
X49173816Y-60462000D01*
X49426848Y-60462000D01*
X49723152Y-60585036D01*
X50075303Y-60585343D01*
X50400765Y-60450865D01*
X50649990Y-60202075D01*
X50726519Y-60017773D01*
X51028784Y-59892879D01*
X51291955Y-59630168D01*
X51434557Y-59286743D01*
X51434882Y-58914888D01*
X51292879Y-58571216D01*
X51030168Y-58308045D01*
X50686743Y-58165443D01*
X50314888Y-58165118D01*
X50050165Y-58274500D01*
X48349382Y-58274500D01*
X48086743Y-58165443D01*
X47714888Y-58165118D01*
X47371216Y-58307121D01*
X47108045Y-58569832D01*
X46965443Y-58913257D01*
X46965118Y-59285112D01*
X32125500Y-59285112D01*
X32125500Y-52685112D01*
X69865118Y-52685112D01*
X70007121Y-53028784D01*
X70269832Y-53291955D01*
X70613257Y-53434557D01*
X70680484Y-53434616D01*
X70749135Y-53600765D01*
X70997925Y-53849990D01*
X71323152Y-53985036D01*
X71675303Y-53985343D01*
X71973816Y-53862000D01*
X72226848Y-53862000D01*
X72523152Y-53985036D01*
X72875303Y-53985343D01*
X73200765Y-53850865D01*
X73449990Y-53602075D01*
X73519438Y-53434825D01*
X73585112Y-53434882D01*
X73928784Y-53292879D01*
X74191955Y-53030168D01*
X74334557Y-52686743D01*
X74334882Y-52314888D01*
X74192879Y-51971216D01*
X73930168Y-51708045D01*
X73586743Y-51565443D01*
X73214888Y-51565118D01*
X72950165Y-51674500D01*
X71249382Y-51674500D01*
X70986743Y-51565443D01*
X70614888Y-51565118D01*
X70271216Y-51707121D01*
X70008045Y-51969832D01*
X69865443Y-52313257D01*
X69865118Y-52685112D01*
X32125500Y-52685112D01*
X32125500Y-51044371D01*
X32144006Y-51137407D01*
X32391777Y-51508223D01*
X32762593Y-51755994D01*
X33200000Y-51843000D01*
X53400000Y-51843000D01*
X53837407Y-51755994D01*
X54208223Y-51508223D01*
X57773446Y-47943000D01*
X58600000Y-47943000D01*
X59037407Y-47855994D01*
X59408223Y-47608223D01*
X59655994Y-47237407D01*
X59743000Y-46800000D01*
X59655994Y-46362593D01*
X59408223Y-45991777D01*
X59037407Y-45744006D01*
X58600000Y-45657000D01*
X57300000Y-45657000D01*
X56862593Y-45744006D01*
X56491777Y-45991777D01*
X52926554Y-49557000D01*
X33200000Y-49557000D01*
X32762593Y-49644006D01*
X32391777Y-49891777D01*
X32144006Y-50262593D01*
X32125500Y-50355629D01*
X32125500Y-44041934D01*
X32941933Y-43225500D01*
X40150618Y-43225500D01*
X40413257Y-43334557D01*
X40785112Y-43334882D01*
X41049835Y-43225500D01*
X56800000Y-43225500D01*
X57115906Y-43162663D01*
X57383717Y-42983717D01*
X57641933Y-42725500D01*
X60950618Y-42725500D01*
X61213257Y-42834557D01*
X61585112Y-42834882D01*
X61928784Y-42692879D01*
X62102761Y-42519207D01*
X64491777Y-44908223D01*
X64862593Y-45155994D01*
X65300000Y-45243000D01*
X75600000Y-45243000D01*
X76037407Y-45155994D01*
X76408223Y-44908223D01*
X79873446Y-41443000D01*
X81100000Y-41443000D01*
X81537407Y-41355994D01*
X81908223Y-41108223D01*
X82155994Y-40737407D01*
X82243000Y-40300000D01*
X82215550Y-40162000D01*
X82310263Y-40162000D01*
X82497925Y-40349990D01*
X82497925Y-40349990D01*
G37*
X82497925Y-40349990D02*
X82823152Y-40485036D01*
X83175303Y-40485343D01*
X83373000Y-40403656D01*
X83373000Y-49783385D01*
X83355321Y-49825961D01*
X83299235Y-49849135D01*
X83050010Y-50097925D01*
X82914964Y-50423152D01*
X82914868Y-50533355D01*
X82750010Y-50697925D01*
X82614964Y-51023152D01*
X82614657Y-51375303D01*
X82749135Y-51700765D01*
X82997925Y-51949990D01*
X83323152Y-52085036D01*
X83373000Y-52085079D01*
X83373000Y-54338000D01*
X77053481Y-54338000D01*
X77159870Y-54081787D01*
X77160229Y-53670019D01*
X77002984Y-53289457D01*
X76712074Y-52998039D01*
X76331787Y-52840130D01*
X75920019Y-52839771D01*
X75539457Y-52997016D01*
X75248039Y-53287926D01*
X75195318Y-53414893D01*
X74924697Y-53414657D01*
X74599235Y-53549135D01*
X74350010Y-53797925D01*
X74214964Y-54123152D01*
X74214657Y-54475303D01*
X74349135Y-54800765D01*
X74597925Y-55049990D01*
X74896225Y-55173855D01*
X75361185Y-55638815D01*
X75608395Y-55803996D01*
X75900000Y-55862000D01*
X76873000Y-55862000D01*
X76873000Y-60838000D01*
X67295659Y-60838000D01*
X67343000Y-60600000D01*
X67255994Y-60162593D01*
X67008223Y-59791777D01*
X66637407Y-59544006D01*
X66200000Y-59457000D01*
X65762593Y-59544006D01*
X65743146Y-59557000D01*
X59706515Y-59557000D01*
X59537407Y-59444006D01*
X59100000Y-59357000D01*
X58662593Y-59444006D01*
X58291777Y-59691777D01*
X58044006Y-60062593D01*
X57957000Y-60500000D01*
X58024233Y-60838000D01*
X54573152Y-60838000D01*
X54280794Y-60716603D01*
X54284870Y-60706787D01*
X54285229Y-60295019D01*
X54127984Y-59914457D01*
X53837074Y-59623039D01*
X53456787Y-59465130D01*
X53045019Y-59464771D01*
X52664457Y-59622016D01*
X52373039Y-59912926D01*
X52330686Y-60014924D01*
X52024697Y-60014657D01*
X51699235Y-60149135D01*
X51450010Y-60397925D01*
X51314964Y-60723152D01*
X51314657Y-61075303D01*
X51449135Y-61400765D01*
X51697925Y-61649990D01*
X51996224Y-61773855D01*
X52961185Y-62738816D01*
X53087404Y-62823152D01*
X53208395Y-62903996D01*
X53500000Y-62962000D01*
X54373000Y-62962000D01*
X54373000Y-64373000D01*
X41500000Y-64373000D01*
X41450590Y-64383006D01*
X41408965Y-64411447D01*
X41381685Y-64453841D01*
X41373000Y-64500000D01*
X41373000Y-75574500D01*
X34893440Y-75574500D01*
X34893440Y-73734000D01*
X34849162Y-73498683D01*
X34710090Y-73282559D01*
X34497890Y-73137569D01*
X34246000Y-73086560D01*
X32214000Y-73086560D01*
X32125500Y-73103212D01*
X32125500Y-69395518D01*
X32214000Y-69413440D01*
X34246000Y-69413440D01*
X34481317Y-69369162D01*
X34697441Y-69230090D01*
X34842431Y-69017890D01*
X34893440Y-68766000D01*
X34893440Y-66734000D01*
X34849162Y-66498683D01*
X34710090Y-66282559D01*
X34497890Y-66137569D01*
X34246000Y-66086560D01*
X32214000Y-66086560D01*
X32125500Y-66103212D01*
X32125500Y-59285112D01*
X46965118Y-59285112D01*
X47107121Y-59628784D01*
X47369832Y-59891955D01*
X47713257Y-60034557D01*
X47880520Y-60034703D01*
X47949135Y-60200765D01*
X48197925Y-60449990D01*
X48523152Y-60585036D01*
X48875303Y-60585343D01*
X49173816Y-60462000D01*
X49426848Y-60462000D01*
X49723152Y-60585036D01*
X50075303Y-60585343D01*
X50400765Y-60450865D01*
X50649990Y-60202075D01*
X50726519Y-60017773D01*
X51028784Y-59892879D01*
X51291955Y-59630168D01*
X51434557Y-59286743D01*
X51434882Y-58914888D01*
X51292879Y-58571216D01*
X51030168Y-58308045D01*
X50686743Y-58165443D01*
X50314888Y-58165118D01*
X50050165Y-58274500D01*
X48349382Y-58274500D01*
X48086743Y-58165443D01*
X47714888Y-58165118D01*
X47371216Y-58307121D01*
X47108045Y-58569832D01*
X46965443Y-58913257D01*
X46965118Y-59285112D01*
X32125500Y-59285112D01*
X32125500Y-52685112D01*
X69865118Y-52685112D01*
X70007121Y-53028784D01*
X70269832Y-53291955D01*
X70613257Y-53434557D01*
X70680484Y-53434616D01*
X70749135Y-53600765D01*
X70997925Y-53849990D01*
X71323152Y-53985036D01*
X71675303Y-53985343D01*
X71973816Y-53862000D01*
X72226848Y-53862000D01*
X72523152Y-53985036D01*
X72875303Y-53985343D01*
X73200765Y-53850865D01*
X73449990Y-53602075D01*
X73519438Y-53434825D01*
X73585112Y-53434882D01*
X73928784Y-53292879D01*
X74191955Y-53030168D01*
X74334557Y-52686743D01*
X74334882Y-52314888D01*
X74192879Y-51971216D01*
X73930168Y-51708045D01*
X73586743Y-51565443D01*
X73214888Y-51565118D01*
X72950165Y-51674500D01*
X71249382Y-51674500D01*
X70986743Y-51565443D01*
X70614888Y-51565118D01*
X70271216Y-51707121D01*
X70008045Y-51969832D01*
X69865443Y-52313257D01*
X69865118Y-52685112D01*
X32125500Y-52685112D01*
X32125500Y-51044371D01*
X32144006Y-51137407D01*
X32391777Y-51508223D01*
X32762593Y-51755994D01*
X33200000Y-51843000D01*
X53400000Y-51843000D01*
X53837407Y-51755994D01*
X54208223Y-51508223D01*
X57773446Y-47943000D01*
X58600000Y-47943000D01*
X59037407Y-47855994D01*
X59408223Y-47608223D01*
X59655994Y-47237407D01*
X59743000Y-46800000D01*
X59655994Y-46362593D01*
X59408223Y-45991777D01*
X59037407Y-45744006D01*
X58600000Y-45657000D01*
X57300000Y-45657000D01*
X56862593Y-45744006D01*
X56491777Y-45991777D01*
X52926554Y-49557000D01*
X33200000Y-49557000D01*
X32762593Y-49644006D01*
X32391777Y-49891777D01*
X32144006Y-50262593D01*
X32125500Y-50355629D01*
X32125500Y-44041934D01*
X32941933Y-43225500D01*
X40150618Y-43225500D01*
X40413257Y-43334557D01*
X40785112Y-43334882D01*
X41049835Y-43225500D01*
X56800000Y-43225500D01*
X57115906Y-43162663D01*
X57383717Y-42983717D01*
X57641933Y-42725500D01*
X60950618Y-42725500D01*
X61213257Y-42834557D01*
X61585112Y-42834882D01*
X61928784Y-42692879D01*
X62102761Y-42519207D01*
X64491777Y-44908223D01*
X64862593Y-45155994D01*
X65300000Y-45243000D01*
X75600000Y-45243000D01*
X76037407Y-45155994D01*
X76408223Y-44908223D01*
X79873446Y-41443000D01*
X81100000Y-41443000D01*
X81537407Y-41355994D01*
X81908223Y-41108223D01*
X82155994Y-40737407D01*
X82243000Y-40300000D01*
X82215550Y-40162000D01*
X82310263Y-40162000D01*
X82497925Y-40349990D01*
G36*
X110873000Y-35296413D02*
X110676848Y-35214964D01*
X110324697Y-35214657D01*
X109999235Y-35349135D01*
X109750010Y-35597925D01*
X109614964Y-35923152D01*
X109614747Y-36172225D01*
X109476848Y-36114964D01*
X109124697Y-36114657D01*
X108799235Y-36249135D01*
X108550010Y-36497925D01*
X108414964Y-36823152D01*
X108414657Y-37175303D01*
X108538000Y-37473816D01*
X108538000Y-42526848D01*
X108414964Y-42823152D01*
X108414657Y-43175303D01*
X108549135Y-43500765D01*
X108797925Y-43749990D01*
X109123152Y-43885036D01*
X109475303Y-43885343D01*
X109580489Y-43841881D01*
X108861185Y-44561185D01*
X108696004Y-44808395D01*
X108638000Y-45100000D01*
X108638000Y-46026848D01*
X108514964Y-46323152D01*
X108514657Y-46675303D01*
X108649135Y-47000765D01*
X108897925Y-47249990D01*
X109223152Y-47385036D01*
X109575303Y-47385343D01*
X109900765Y-47250865D01*
X110149990Y-47002075D01*
X110285036Y-46676848D01*
X110285343Y-46324697D01*
X110162000Y-46026184D01*
X110162000Y-45415630D01*
X111038815Y-44538815D01*
X111053347Y-44517067D01*
X111203996Y-44291605D01*
X111262000Y-44000000D01*
X111262000Y-39127000D01*
X120000000Y-39127000D01*
X120049410Y-39116994D01*
X120091035Y-39088553D01*
X120118315Y-39046159D01*
X120127000Y-39000000D01*
X120127000Y-28185000D01*
X131204159Y-28185000D01*
X130879057Y-28319329D01*
X130221638Y-28975602D01*
X129865407Y-29833502D01*
X129864596Y-30762422D01*
X130219329Y-31620943D01*
X130875602Y-32278362D01*
X131733502Y-32634593D01*
X132662422Y-32635404D01*
X133520943Y-32280671D01*
X134178362Y-31624398D01*
X134534593Y-30766498D01*
X134535404Y-29837578D01*
X134180671Y-28979057D01*
X133524398Y-28321638D01*
X133195337Y-28185000D01*
X134873000Y-28185000D01*
X134873000Y-40873000D01*
X129915347Y-40873000D01*
X129416552Y-40665882D01*
X128587087Y-40665158D01*
X128084072Y-40873000D01*
X121000000Y-40873000D01*
X120950590Y-40883006D01*
X120908965Y-40911447D01*
X120881685Y-40953841D01*
X120873000Y-41000000D01*
X120873000Y-42411000D01*
X120000000Y-42411000D01*
X119659794Y-42478671D01*
X119371382Y-42671382D01*
X119366004Y-42676760D01*
X119014457Y-42822016D01*
X118723039Y-43112926D01*
X118565130Y-43493213D01*
X118564771Y-43904981D01*
X118722016Y-44285543D01*
X119012926Y-44576961D01*
X119393213Y-44734870D01*
X119804981Y-44735229D01*
X120185543Y-44577984D01*
X120476961Y-44287074D01*
X120517685Y-44189000D01*
X120873000Y-44189000D01*
X120873000Y-53860480D01*
X120324450Y-53860480D01*
X120287074Y-53823039D01*
X119906787Y-53665130D01*
X119495019Y-53664771D01*
X119114457Y-53822016D01*
X118823039Y-54112926D01*
X118665130Y-54493213D01*
X118664771Y-54904981D01*
X118822016Y-55285543D01*
X119112926Y-55576961D01*
X119493213Y-55734870D01*
X119904981Y-55735229D01*
X120139131Y-55638480D01*
X120873000Y-55638480D01*
X120873000Y-57374500D01*
X112635300Y-57374500D01*
X112635343Y-57324697D01*
X112500865Y-56999235D01*
X112252075Y-56750010D01*
X111926848Y-56614964D01*
X111574697Y-56614657D01*
X111276184Y-56738000D01*
X105973152Y-56738000D01*
X105676848Y-56614964D01*
X105324697Y-56614657D01*
X104999235Y-56749135D01*
X104750010Y-56997925D01*
X104614964Y-57323152D01*
X104614919Y-57374500D01*
X102449382Y-57374500D01*
X102186743Y-57265443D01*
X101814888Y-57265118D01*
X101471216Y-57407121D01*
X101208045Y-57669832D01*
X101065443Y-58013257D01*
X101065118Y-58385112D01*
X101207121Y-58728784D01*
X101469832Y-58991955D01*
X101813257Y-59134557D01*
X102185112Y-59134882D01*
X102449835Y-59025500D01*
X109350618Y-59025500D01*
X109613257Y-59134557D01*
X109985112Y-59134882D01*
X110249835Y-59025500D01*
X111114788Y-59025500D01*
X111114657Y-59175303D01*
X111249135Y-59500765D01*
X111497925Y-59749990D01*
X111823152Y-59885036D01*
X112175303Y-59885343D01*
X112473816Y-59762000D01*
X123810089Y-59762000D01*
X123897925Y-59849990D01*
X124223152Y-59985036D01*
X124575303Y-59985343D01*
X124900765Y-59850865D01*
X125149990Y-59602075D01*
X125285036Y-59276848D01*
X125285255Y-59025500D01*
X133305764Y-59025500D01*
X133307121Y-59028784D01*
X133569832Y-59291955D01*
X133913257Y-59434557D01*
X134111000Y-59434730D01*
X134111000Y-60741919D01*
X133965130Y-61093213D01*
X133964771Y-61504981D01*
X134122016Y-61885543D01*
X134412926Y-62176961D01*
X134793213Y-62334870D01*
X134873000Y-62334940D01*
X134873000Y-68873000D01*
X126800000Y-68873000D01*
X126750590Y-68883006D01*
X126708965Y-68911447D01*
X126681685Y-68953841D01*
X126673000Y-69000000D01*
X126673000Y-80409643D01*
X126587828Y-80282174D01*
X126134609Y-79979342D01*
X125600000Y-79873002D01*
X125065391Y-79979342D01*
X125004916Y-80019750D01*
X125134870Y-79706787D01*
X125135229Y-79295019D01*
X124977984Y-78914457D01*
X124687074Y-78623039D01*
X124306787Y-78465130D01*
X123895019Y-78464771D01*
X123514457Y-78622016D01*
X123223039Y-78912926D01*
X123140791Y-79111000D01*
X121933440Y-79111000D01*
X121933440Y-77425500D01*
X122700000Y-77425500D01*
X123015906Y-77362663D01*
X123283717Y-77183717D01*
X123432268Y-77035166D01*
X123504981Y-77035229D01*
X123885543Y-76877984D01*
X124176961Y-76587074D01*
X124334870Y-76206787D01*
X124335229Y-75795019D01*
X124177984Y-75414457D01*
X123887074Y-75123039D01*
X123506787Y-74965130D01*
X123095019Y-74964771D01*
X122714457Y-75122016D01*
X122423039Y-75412926D01*
X122272900Y-75774500D01*
X117149382Y-75774500D01*
X116886743Y-75665443D01*
X116514888Y-75665118D01*
X116250165Y-75774500D01*
X108149382Y-75774500D01*
X107886743Y-75665443D01*
X107514888Y-75665118D01*
X107250165Y-75774500D01*
X99149382Y-75774500D01*
X98886743Y-75665443D01*
X98514888Y-75665118D01*
X98250165Y-75774500D01*
X90149382Y-75774500D01*
X89886743Y-75665443D01*
X89514888Y-75665118D01*
X89250165Y-75774500D01*
X81149382Y-75774500D01*
X80886743Y-75665443D01*
X80514888Y-75665118D01*
X80250165Y-75774500D01*
X73199382Y-75774500D01*
X72936743Y-75665443D01*
X72564888Y-75665118D01*
X72300165Y-75774500D01*
X59876524Y-75774500D01*
X59820168Y-75718045D01*
X59476743Y-75575443D01*
X59104888Y-75575118D01*
X58840165Y-75684500D01*
X51006489Y-75684500D01*
X50930168Y-75608045D01*
X50586743Y-75465443D01*
X50214888Y-75465118D01*
X49950165Y-75574500D01*
X42627000Y-75574500D01*
X42627000Y-71562422D01*
X52664596Y-71562422D01*
X53019329Y-72420943D01*
X53675602Y-73078362D01*
X54533502Y-73434593D01*
X55462422Y-73435404D01*
X56320943Y-73080671D01*
X56978362Y-72424398D01*
X57334593Y-71566498D01*
X57335404Y-70637578D01*
X57156659Y-70204981D01*
X59864771Y-70204981D01*
X60022016Y-70585543D01*
X60312926Y-70876961D01*
X60693213Y-71034870D01*
X61104981Y-71035229D01*
X61458882Y-70889000D01*
X62175515Y-70889000D01*
X62165443Y-70913257D01*
X62165118Y-71285112D01*
X62307121Y-71628784D01*
X62569832Y-71891955D01*
X62913257Y-72034557D01*
X63285112Y-72034882D01*
X63549835Y-71925500D01*
X65700000Y-71925500D01*
X66015906Y-71862663D01*
X66283717Y-71683717D01*
X66783714Y-71183719D01*
X66783717Y-71183717D01*
X66962663Y-70915905D01*
X66970206Y-70877984D01*
X67025501Y-70600000D01*
X67025500Y-70599995D01*
X67025500Y-70549382D01*
X67134557Y-70286743D01*
X67134882Y-69914888D01*
X66992879Y-69571216D01*
X66730168Y-69308045D01*
X66386743Y-69165443D01*
X66014888Y-69165118D01*
X65671216Y-69307121D01*
X65605912Y-69372311D01*
X65357074Y-69123039D01*
X64976787Y-68965130D01*
X64565019Y-68964771D01*
X64211118Y-69111000D01*
X61458081Y-69111000D01*
X61106787Y-68965130D01*
X60695019Y-68964771D01*
X60314457Y-69122016D01*
X60023039Y-69412926D01*
X59865130Y-69793213D01*
X59864771Y-70204981D01*
X57156659Y-70204981D01*
X56980671Y-69779057D01*
X56324398Y-69121638D01*
X55466498Y-68765407D01*
X54537578Y-68764596D01*
X53679057Y-69119329D01*
X53021638Y-69775602D01*
X52665407Y-70633502D01*
X52664596Y-71562422D01*
X42627000Y-71562422D01*
X42627000Y-65627000D01*
X55500000Y-65627000D01*
X55549410Y-65616994D01*
X55591035Y-65588553D01*
X55618315Y-65546159D01*
X55627000Y-65500000D01*
X55627000Y-62962000D01*
X62009625Y-62962000D01*
X61861185Y-63061185D01*
X61595754Y-63326616D01*
X61299235Y-63449135D01*
X61050010Y-63697925D01*
X60914964Y-64023152D01*
X60914657Y-64375303D01*
X61049135Y-64700765D01*
X61297925Y-64949990D01*
X61623152Y-65085036D01*
X61975303Y-65085343D01*
X62300765Y-64950865D01*
X62549990Y-64702075D01*
X62673855Y-64403775D01*
X62715630Y-64362000D01*
X64681880Y-64362000D01*
X64614964Y-64523152D01*
X64614657Y-64875303D01*
X64738283Y-65174500D01*
X63149382Y-65174500D01*
X62886743Y-65065443D01*
X62514888Y-65065118D01*
X62250165Y-65174500D01*
X59908555Y-65174500D01*
X59886743Y-65165443D01*
X59514888Y-65165118D01*
X59171216Y-65307121D01*
X58908045Y-65569832D01*
X58765443Y-65913257D01*
X58765118Y-66285112D01*
X58786971Y-66338000D01*
X52100000Y-66338000D01*
X51808395Y-66396004D01*
X51561184Y-66561185D01*
X51195753Y-66926616D01*
X50899235Y-67049135D01*
X50650010Y-67297925D01*
X50514964Y-67623152D01*
X50514657Y-67975303D01*
X50649135Y-68300765D01*
X50897925Y-68549990D01*
X51223152Y-68685036D01*
X51575303Y-68685343D01*
X51900765Y-68550865D01*
X52149990Y-68302075D01*
X52273855Y-68003776D01*
X52415631Y-67862000D01*
X67100000Y-67862000D01*
X67391605Y-67803996D01*
X67638815Y-67638815D01*
X67815630Y-67462000D01*
X72081880Y-67462000D01*
X72014964Y-67623152D01*
X72014657Y-67975303D01*
X72138000Y-68273816D01*
X72138000Y-69800000D01*
X72196004Y-70091605D01*
X72332580Y-70296004D01*
X72361185Y-70338815D01*
X73561184Y-71538815D01*
X73697904Y-71630168D01*
X73808395Y-71703996D01*
X73979344Y-71738000D01*
X72673152Y-71738000D01*
X72376848Y-71614964D01*
X72024697Y-71614657D01*
X71699235Y-71749135D01*
X71450010Y-71997925D01*
X71314964Y-72323152D01*
X71314657Y-72675303D01*
X71449135Y-73000765D01*
X71697925Y-73249990D01*
X72023152Y-73385036D01*
X72375303Y-73385343D01*
X72673816Y-73262000D01*
X83249160Y-73262000D01*
X83540765Y-73203996D01*
X83787975Y-73038815D01*
X84353407Y-72473384D01*
X84649925Y-72350865D01*
X84899150Y-72102075D01*
X85034196Y-71776848D01*
X85034209Y-71762000D01*
X92233530Y-71762000D01*
X92275776Y-71804246D01*
X92398295Y-72100765D01*
X92647085Y-72349990D01*
X92972312Y-72485036D01*
X93324463Y-72485343D01*
X93649925Y-72350865D01*
X93899150Y-72102075D01*
X94034196Y-71776848D01*
X94034503Y-71424697D01*
X94008597Y-71362000D01*
X100634270Y-71362000D01*
X101076516Y-71804247D01*
X101199035Y-72100765D01*
X101447825Y-72349990D01*
X101773052Y-72485036D01*
X102125203Y-72485343D01*
X102450665Y-72350865D01*
X102699890Y-72102075D01*
X102834936Y-71776848D01*
X102835243Y-71424697D01*
X102700765Y-71099235D01*
X102563770Y-70962000D01*
X109433530Y-70962000D01*
X110275776Y-71804246D01*
X110398295Y-72100765D01*
X110647085Y-72349990D01*
X110972312Y-72485036D01*
X111324463Y-72485343D01*
X111649925Y-72350865D01*
X111899150Y-72102075D01*
X112034196Y-71776848D01*
X112034503Y-71424697D01*
X111900025Y-71099235D01*
X111651235Y-70850010D01*
X111352935Y-70726145D01*
X111188790Y-70562000D01*
X117933530Y-70562000D01*
X119275777Y-71904247D01*
X119398295Y-72200765D01*
X119647085Y-72449990D01*
X119972312Y-72585036D01*
X120324463Y-72585343D01*
X120649925Y-72450865D01*
X120899150Y-72202075D01*
X121034196Y-71876848D01*
X121034503Y-71524697D01*
X120900025Y-71199235D01*
X120651235Y-70950010D01*
X120352937Y-70826146D01*
X118787975Y-69261185D01*
X118644687Y-69165443D01*
X118540765Y-69096004D01*
X118249160Y-69038000D01*
X101139630Y-69038000D01*
X101404246Y-68773384D01*
X101700765Y-68650865D01*
X101741183Y-68610518D01*
X102000000Y-68662000D01*
X102095883Y-68662000D01*
X102209377Y-68737834D01*
X102308395Y-68803996D01*
X102600000Y-68862000D01*
X109926848Y-68862000D01*
X110223152Y-68985036D01*
X110575303Y-68985343D01*
X110900765Y-68850865D01*
X111149990Y-68602075D01*
X111285036Y-68276848D01*
X111285049Y-68262000D01*
X118491799Y-68262000D01*
X118549135Y-68400765D01*
X118797925Y-68649990D01*
X119123152Y-68785036D01*
X119475303Y-68785343D01*
X119800765Y-68650865D01*
X120049990Y-68402075D01*
X120185036Y-68076848D01*
X120185343Y-67724697D01*
X120050865Y-67399235D01*
X119802075Y-67150010D01*
X119503775Y-67026145D01*
X119438815Y-66961185D01*
X119423370Y-66950865D01*
X119191605Y-66796004D01*
X118900000Y-66738000D01*
X112413652Y-66738000D01*
X112649990Y-66502075D01*
X112785036Y-66176848D01*
X112785343Y-65824697D01*
X112650865Y-65499235D01*
X112402075Y-65250010D01*
X112076848Y-65114964D01*
X111724697Y-65114657D01*
X111566828Y-65179887D01*
X111476799Y-64962000D01*
X112326848Y-64962000D01*
X112623152Y-65085036D01*
X112975303Y-65085343D01*
X113300765Y-64950865D01*
X113549990Y-64702075D01*
X113685036Y-64376848D01*
X113685119Y-64281287D01*
X114000765Y-64150865D01*
X114089362Y-64062422D01*
X116864596Y-64062422D01*
X117219329Y-64920943D01*
X117875602Y-65578362D01*
X118733502Y-65934593D01*
X119662422Y-65935404D01*
X120462108Y-65604981D01*
X123364771Y-65604981D01*
X123522016Y-65985543D01*
X123812926Y-66276961D01*
X124193213Y-66434870D01*
X124604981Y-66435229D01*
X124985543Y-66277984D01*
X125276961Y-65987074D01*
X125423807Y-65633429D01*
X126168236Y-64889000D01*
X130241919Y-64889000D01*
X130593213Y-65034870D01*
X131004981Y-65035229D01*
X131385543Y-64877984D01*
X131676961Y-64587074D01*
X131834870Y-64206787D01*
X131835229Y-63795019D01*
X131677984Y-63414457D01*
X131387074Y-63123039D01*
X131006787Y-62965130D01*
X130595019Y-62964771D01*
X130241118Y-63111000D01*
X125800000Y-63111000D01*
X125459794Y-63178671D01*
X125171382Y-63371382D01*
X124166004Y-64376760D01*
X123814457Y-64522016D01*
X123523039Y-64812926D01*
X123365130Y-65193213D01*
X123364771Y-65604981D01*
X120462108Y-65604981D01*
X120520943Y-65580671D01*
X121178362Y-64924398D01*
X121534593Y-64066498D01*
X121535404Y-63137578D01*
X121180671Y-62279057D01*
X120524398Y-61621638D01*
X119666498Y-61265407D01*
X118737578Y-61264596D01*
X117879057Y-61619329D01*
X117221638Y-62275602D01*
X116865407Y-63133502D01*
X116864596Y-64062422D01*
X114089362Y-64062422D01*
X114249990Y-63902075D01*
X114385036Y-63576848D01*
X114385343Y-63224697D01*
X114250865Y-62899235D01*
X114002075Y-62650010D01*
X113676848Y-62514964D01*
X113324697Y-62514657D01*
X112999235Y-62649135D01*
X112810040Y-62838000D01*
X105185157Y-62838000D01*
X105185343Y-62624697D01*
X105050865Y-62299235D01*
X104802075Y-62050010D01*
X104476848Y-61914964D01*
X104146331Y-61914676D01*
X104300765Y-61850865D01*
X104549990Y-61602075D01*
X104685036Y-61276848D01*
X104685343Y-60924697D01*
X104550865Y-60599235D01*
X104302075Y-60350010D01*
X103976848Y-60214964D01*
X103624697Y-60214657D01*
X103299235Y-60349135D01*
X103050010Y-60597925D01*
X102991846Y-60738000D01*
X100900000Y-60738000D01*
X100608395Y-60796004D01*
X100430811Y-60914662D01*
X100424697Y-60914657D01*
X100099235Y-61049135D01*
X99850010Y-61297925D01*
X99714964Y-61623152D01*
X99714657Y-61975303D01*
X99849135Y-62300765D01*
X99986130Y-62438000D01*
X83015631Y-62438000D01*
X82439630Y-61862000D01*
X84026848Y-61862000D01*
X84323152Y-61985036D01*
X84675303Y-61985343D01*
X85000765Y-61850865D01*
X85249990Y-61602075D01*
X85385036Y-61276848D01*
X85385136Y-61162000D01*
X85926848Y-61162000D01*
X86223152Y-61285036D01*
X86575303Y-61285343D01*
X86900765Y-61150865D01*
X87149990Y-60902075D01*
X87285036Y-60576848D01*
X87285343Y-60224697D01*
X87150865Y-59899235D01*
X86902075Y-59650010D01*
X86576848Y-59514964D01*
X86224697Y-59514657D01*
X85926184Y-59638000D01*
X82173152Y-59638000D01*
X81876848Y-59514964D01*
X81524697Y-59514657D01*
X81199235Y-59649135D01*
X80950010Y-59897925D01*
X80814964Y-60223152D01*
X80814657Y-60575303D01*
X80872326Y-60714873D01*
X80624697Y-60714657D01*
X80326184Y-60838000D01*
X78127000Y-60838000D01*
X78127000Y-56127000D01*
X84500000Y-56127000D01*
X84549410Y-56116994D01*
X84591035Y-56088553D01*
X84618315Y-56046159D01*
X84627000Y-56000000D01*
X84627000Y-55862000D01*
X85060370Y-55862000D01*
X84595754Y-56326616D01*
X84299235Y-56449135D01*
X84050010Y-56697925D01*
X83914964Y-57023152D01*
X83914657Y-57375303D01*
X84049135Y-57700765D01*
X84297925Y-57949990D01*
X84623152Y-58085036D01*
X84975303Y-58085343D01*
X85300765Y-57950865D01*
X85549990Y-57702075D01*
X85629369Y-57510909D01*
X85749135Y-57800765D01*
X85997925Y-58049990D01*
X86323152Y-58185036D01*
X86675303Y-58185343D01*
X87000765Y-58050865D01*
X87249990Y-57802075D01*
X87373855Y-57503776D01*
X88015631Y-56862000D01*
X97810118Y-56862000D01*
X97599235Y-56949135D01*
X97350010Y-57197925D01*
X97214964Y-57523152D01*
X97214657Y-57875303D01*
X97338000Y-58173816D01*
X97338000Y-59426848D01*
X97214964Y-59723152D01*
X97214657Y-60075303D01*
X97349135Y-60400765D01*
X97597925Y-60649990D01*
X97923152Y-60785036D01*
X97942643Y-60785053D01*
X97949135Y-60800765D01*
X98197925Y-61049990D01*
X98523152Y-61185036D01*
X98875303Y-61185343D01*
X99200765Y-61050865D01*
X99449990Y-60802075D01*
X99585036Y-60476848D01*
X99585343Y-60124697D01*
X99462000Y-59826184D01*
X99462000Y-57873152D01*
X99585036Y-57576848D01*
X99585343Y-57224697D01*
X99450865Y-56899235D01*
X99413695Y-56862000D01*
X99867675Y-56862000D01*
X99923152Y-56885036D01*
X100275303Y-56885343D01*
X100600765Y-56750865D01*
X100849990Y-56502075D01*
X100985036Y-56176848D01*
X100985343Y-55824697D01*
X100850865Y-55499235D01*
X100685161Y-55333241D01*
X100685343Y-55124697D01*
X100627710Y-54985214D01*
X100775303Y-54985343D01*
X101100765Y-54850865D01*
X101289960Y-54662000D01*
X103467675Y-54662000D01*
X103523152Y-54685036D01*
X103875303Y-54685343D01*
X104200765Y-54550865D01*
X104449990Y-54302075D01*
X104585036Y-53976848D01*
X104585343Y-53624697D01*
X104450865Y-53299235D01*
X104285248Y-53133329D01*
X104285343Y-53024697D01*
X104150865Y-52699235D01*
X103902075Y-52450010D01*
X103576848Y-52314964D01*
X103224697Y-52314657D01*
X102899235Y-52449135D01*
X102710040Y-52638000D01*
X101073152Y-52638000D01*
X100776848Y-52514964D01*
X100424697Y-52514657D01*
X100099235Y-52649135D01*
X99850010Y-52897925D01*
X99714964Y-53223152D01*
X99714657Y-53575303D01*
X99786852Y-53750027D01*
X99714964Y-53923152D01*
X99714657Y-54275303D01*
X99772290Y-54414786D01*
X99624697Y-54414657D01*
X99299235Y-54549135D01*
X99050010Y-54797925D01*
X99033369Y-54838000D01*
X96785157Y-54838000D01*
X96785343Y-54624697D01*
X96650865Y-54299235D01*
X96402075Y-54050010D01*
X96076848Y-53914964D01*
X95724697Y-53914657D01*
X95399235Y-54049135D01*
X95150010Y-54297925D01*
X95133369Y-54338000D01*
X84627000Y-54338000D01*
X84627000Y-51962000D01*
X96010263Y-51962000D01*
X96197925Y-52149990D01*
X96523152Y-52285036D01*
X96875303Y-52285343D01*
X97200765Y-52150865D01*
X97449990Y-51902075D01*
X97585036Y-51576848D01*
X97585049Y-51562000D01*
X108491799Y-51562000D01*
X108549135Y-51700765D01*
X108797925Y-51949990D01*
X109123152Y-52085036D01*
X109475303Y-52085343D01*
X109800765Y-51950865D01*
X110049990Y-51702075D01*
X110185036Y-51376848D01*
X110185343Y-51024697D01*
X110050865Y-50699235D01*
X109802075Y-50450010D01*
X109503775Y-50326145D01*
X109438815Y-50261185D01*
X109347245Y-50200000D01*
X109191605Y-50096004D01*
X108900000Y-50038000D01*
X105585070Y-50038000D01*
X105585343Y-49724697D01*
X105450865Y-49399235D01*
X105202075Y-49150010D01*
X104876848Y-49014964D01*
X104869631Y-49014958D01*
X104691605Y-48896004D01*
X104400000Y-48838000D01*
X96885157Y-48838000D01*
X96885343Y-48624697D01*
X96750865Y-48299235D01*
X96502075Y-48050010D01*
X96462000Y-48033369D01*
X96462000Y-41480068D01*
X96473298Y-41484759D01*
X96967757Y-41485191D01*
X98074500Y-42591934D01*
X98074500Y-44251533D01*
X97965823Y-44513257D01*
X97965498Y-44885112D01*
X98107501Y-45228784D01*
X98370212Y-45491955D01*
X98713637Y-45634557D01*
X99085492Y-45634882D01*
X99429164Y-45492879D01*
X99692335Y-45230168D01*
X99834937Y-44886743D01*
X99835262Y-44514888D01*
X99725500Y-44249245D01*
X99725500Y-42275303D01*
X106114657Y-42275303D01*
X106249135Y-42600765D01*
X106497925Y-42849990D01*
X106823152Y-42985036D01*
X107175303Y-42985343D01*
X107500765Y-42850865D01*
X107749990Y-42602075D01*
X107885036Y-42276848D01*
X107885343Y-41924697D01*
X107762000Y-41626184D01*
X107762000Y-37589911D01*
X107849990Y-37502075D01*
X107985036Y-37176848D01*
X107985343Y-36824697D01*
X107850865Y-36499235D01*
X107602075Y-36250010D01*
X107276848Y-36114964D01*
X106924697Y-36114657D01*
X106599235Y-36249135D01*
X106350010Y-36497925D01*
X106214964Y-36823152D01*
X106214657Y-37175303D01*
X106238000Y-37231797D01*
X106238000Y-41626848D01*
X106114964Y-41923152D01*
X106114657Y-42275303D01*
X99725500Y-42275303D01*
X99725500Y-42250000D01*
X99692500Y-42084095D01*
X99662663Y-41934094D01*
X99483717Y-41666283D01*
X98134811Y-40317377D01*
X98135240Y-39825715D01*
X98049420Y-39618014D01*
X98341934Y-39325500D01*
X102250618Y-39325500D01*
X102513257Y-39434557D01*
X102885112Y-39434882D01*
X103228784Y-39292879D01*
X103491955Y-39030168D01*
X103634557Y-38686743D01*
X103634882Y-38314888D01*
X103492879Y-37971216D01*
X103230168Y-37708045D01*
X102886743Y-37565443D01*
X102514888Y-37565118D01*
X102250165Y-37674500D01*
X98000005Y-37674500D01*
X98000000Y-37674499D01*
X97918257Y-37690759D01*
X97923461Y-37685564D01*
X98134759Y-37176702D01*
X98134760Y-37175303D01*
X104014657Y-37175303D01*
X104138000Y-37473816D01*
X104138000Y-40826848D01*
X104014964Y-41123152D01*
X104014657Y-41475303D01*
X104149135Y-41800765D01*
X104397925Y-42049990D01*
X104723152Y-42185036D01*
X105075303Y-42185343D01*
X105400765Y-42050865D01*
X105649990Y-41802075D01*
X105785036Y-41476848D01*
X105785343Y-41124697D01*
X105662000Y-40826184D01*
X105662000Y-37473152D01*
X105785036Y-37176848D01*
X105785343Y-36824697D01*
X105650865Y-36499235D01*
X105402075Y-36250010D01*
X105076848Y-36114964D01*
X104724697Y-36114657D01*
X104399235Y-36249135D01*
X104150010Y-36497925D01*
X104014964Y-36823152D01*
X104014657Y-37175303D01*
X98134760Y-37175303D01*
X98135240Y-36625715D01*
X97924831Y-36116485D01*
X97535564Y-35726539D01*
X97026702Y-35515241D01*
X96475715Y-35514760D01*
X96462000Y-35520427D01*
X96462000Y-34573152D01*
X96585036Y-34276848D01*
X96585343Y-33924697D01*
X96450865Y-33599235D01*
X96202075Y-33350010D01*
X95876848Y-33214964D01*
X95524697Y-33214657D01*
X95199235Y-33349135D01*
X94950010Y-33597925D01*
X94814964Y-33923152D01*
X94814657Y-34275303D01*
X94938000Y-34573816D01*
X94938000Y-35686027D01*
X94526702Y-35515241D01*
X93975715Y-35514760D01*
X93466485Y-35725169D01*
X93076539Y-36114436D01*
X93000073Y-36298586D01*
X92924831Y-36116485D01*
X92535564Y-35726539D01*
X92026702Y-35515241D01*
X91475715Y-35514760D01*
X90966485Y-35725169D01*
X90576539Y-36114436D01*
X90365241Y-36623298D01*
X90364760Y-37174285D01*
X90575169Y-37683515D01*
X90964436Y-38073461D01*
X91473298Y-38284759D01*
X92024285Y-38285240D01*
X92533515Y-38074831D01*
X92923461Y-37685564D01*
X92999927Y-37501414D01*
X93075169Y-37683515D01*
X93464436Y-38073461D01*
X93973298Y-38284759D01*
X94524285Y-38285240D01*
X94938000Y-38114297D01*
X94938000Y-38886027D01*
X94526702Y-38715241D01*
X93975715Y-38714760D01*
X93466485Y-38925169D01*
X93076539Y-39314436D01*
X93006647Y-39482754D01*
X92962460Y-39376077D01*
X92721517Y-39308088D01*
X91929605Y-40100000D01*
X92721517Y-40891912D01*
X92962460Y-40823923D01*
X93003222Y-40709389D01*
X93075169Y-40883515D01*
X93464436Y-41273461D01*
X93973298Y-41484759D01*
X94524285Y-41485240D01*
X94938000Y-41314297D01*
X94938000Y-48400000D01*
X94996004Y-48691605D01*
X95114749Y-48869319D01*
X95114657Y-48975303D01*
X95181882Y-49138000D01*
X85389911Y-49138000D01*
X85302075Y-49050010D01*
X84976848Y-48914964D01*
X84627000Y-48914659D01*
X84627000Y-41071517D01*
X90958088Y-41071517D01*
X91026077Y-41312460D01*
X91545171Y-41497201D01*
X92095448Y-41469230D01*
X92473923Y-41312460D01*
X92541912Y-41071517D01*
X91750000Y-40279605D01*
X90958088Y-41071517D01*
X84627000Y-41071517D01*
X84627000Y-39895171D01*
X90352799Y-39895171D01*
X90380770Y-40445448D01*
X90537540Y-40823923D01*
X90778483Y-40891912D01*
X91570395Y-40100000D01*
X90778483Y-39308088D01*
X90537540Y-39376077D01*
X90352799Y-39895171D01*
X84627000Y-39895171D01*
X84627000Y-39325025D01*
X84649990Y-39302075D01*
X84722071Y-39128483D01*
X90958088Y-39128483D01*
X91750000Y-39920395D01*
X92541912Y-39128483D01*
X92473923Y-38887540D01*
X91954829Y-38702799D01*
X91404552Y-38730770D01*
X91026077Y-38887540D01*
X90958088Y-39128483D01*
X84722071Y-39128483D01*
X84785036Y-38976848D01*
X84785132Y-38866645D01*
X84949990Y-38702075D01*
X85085036Y-38376848D01*
X85085343Y-38024697D01*
X84950865Y-37699235D01*
X84702075Y-37450010D01*
X84627000Y-37418836D01*
X84627000Y-32473564D01*
X103326851Y-32473564D01*
X103358982Y-32917968D01*
X103467232Y-33179308D01*
X103565378Y-33195524D01*
X103511064Y-33249743D01*
X103340195Y-33661241D01*
X103339806Y-34106804D01*
X103509957Y-34518600D01*
X103824743Y-34833936D01*
X104236241Y-35004805D01*
X104681804Y-35005194D01*
X105093600Y-34835043D01*
X105094726Y-34833919D01*
X105094743Y-34833936D01*
X105506241Y-35004805D01*
X105951804Y-35005194D01*
X106363600Y-34835043D01*
X106364726Y-34833919D01*
X106364743Y-34833936D01*
X106776241Y-35004805D01*
X107221804Y-35005194D01*
X107633600Y-34835043D01*
X107634726Y-34833919D01*
X107634743Y-34833936D01*
X108046241Y-35004805D01*
X108491804Y-35005194D01*
X108903600Y-34835043D01*
X108904726Y-34833919D01*
X108904743Y-34833936D01*
X109316241Y-35004805D01*
X109761804Y-35005194D01*
X110173600Y-34835043D01*
X110488936Y-34520257D01*
X110659805Y-34108759D01*
X110660194Y-33663196D01*
X110565430Y-33433850D01*
X110621431Y-33351890D01*
X110672440Y-33100000D01*
X110672440Y-32130000D01*
X110628162Y-31894683D01*
X110489090Y-31678559D01*
X110276890Y-31533569D01*
X110025000Y-31482560D01*
X109055000Y-31482560D01*
X108819683Y-31526838D01*
X108726866Y-31586564D01*
X108411436Y-31481851D01*
X107967032Y-31513982D01*
X107705692Y-31622232D01*
X107684421Y-31750971D01*
X107635000Y-31800392D01*
X107585579Y-31750971D01*
X107564308Y-31622232D01*
X107141436Y-31481851D01*
X106697032Y-31513982D01*
X106435692Y-31622232D01*
X106419476Y-31720378D01*
X106365257Y-31666064D01*
X105953759Y-31495195D01*
X105508196Y-31494806D01*
X105096400Y-31664957D01*
X105040575Y-31720685D01*
X105024308Y-31622232D01*
X104601436Y-31481851D01*
X104157032Y-31513982D01*
X103895692Y-31622232D01*
X103860405Y-31835800D01*
X104460000Y-32435395D01*
X104474143Y-32421253D01*
X104610050Y-32557160D01*
X104609949Y-32672941D01*
X104517840Y-32765050D01*
X104402059Y-32764949D01*
X104266253Y-32629143D01*
X104280395Y-32615000D01*
X103680800Y-32015405D01*
X103467232Y-32050692D01*
X103326851Y-32473564D01*
X84627000Y-32473564D01*
X84627000Y-28185000D01*
X110873000Y-28185000D01*
X110873000Y-35296413D01*
X110873000Y-35296413D01*
G37*
X110873000Y-35296413D02*
X110676848Y-35214964D01*
X110324697Y-35214657D01*
X109999235Y-35349135D01*
X109750010Y-35597925D01*
X109614964Y-35923152D01*
X109614747Y-36172225D01*
X109476848Y-36114964D01*
X109124697Y-36114657D01*
X108799235Y-36249135D01*
X108550010Y-36497925D01*
X108414964Y-36823152D01*
X108414657Y-37175303D01*
X108538000Y-37473816D01*
X108538000Y-42526848D01*
X108414964Y-42823152D01*
X108414657Y-43175303D01*
X108549135Y-43500765D01*
X108797925Y-43749990D01*
X109123152Y-43885036D01*
X109475303Y-43885343D01*
X109580489Y-43841881D01*
X108861185Y-44561185D01*
X108696004Y-44808395D01*
X108638000Y-45100000D01*
X108638000Y-46026848D01*
X108514964Y-46323152D01*
X108514657Y-46675303D01*
X108649135Y-47000765D01*
X108897925Y-47249990D01*
X109223152Y-47385036D01*
X109575303Y-47385343D01*
X109900765Y-47250865D01*
X110149990Y-47002075D01*
X110285036Y-46676848D01*
X110285343Y-46324697D01*
X110162000Y-46026184D01*
X110162000Y-45415630D01*
X111038815Y-44538815D01*
X111053347Y-44517067D01*
X111203996Y-44291605D01*
X111262000Y-44000000D01*
X111262000Y-39127000D01*
X120000000Y-39127000D01*
X120049410Y-39116994D01*
X120091035Y-39088553D01*
X120118315Y-39046159D01*
X120127000Y-39000000D01*
X120127000Y-28185000D01*
X131204159Y-28185000D01*
X130879057Y-28319329D01*
X130221638Y-28975602D01*
X129865407Y-29833502D01*
X129864596Y-30762422D01*
X130219329Y-31620943D01*
X130875602Y-32278362D01*
X131733502Y-32634593D01*
X132662422Y-32635404D01*
X133520943Y-32280671D01*
X134178362Y-31624398D01*
X134534593Y-30766498D01*
X134535404Y-29837578D01*
X134180671Y-28979057D01*
X133524398Y-28321638D01*
X133195337Y-28185000D01*
X134873000Y-28185000D01*
X134873000Y-40873000D01*
X129915347Y-40873000D01*
X129416552Y-40665882D01*
X128587087Y-40665158D01*
X128084072Y-40873000D01*
X121000000Y-40873000D01*
X120950590Y-40883006D01*
X120908965Y-40911447D01*
X120881685Y-40953841D01*
X120873000Y-41000000D01*
X120873000Y-42411000D01*
X120000000Y-42411000D01*
X119659794Y-42478671D01*
X119371382Y-42671382D01*
X119366004Y-42676760D01*
X119014457Y-42822016D01*
X118723039Y-43112926D01*
X118565130Y-43493213D01*
X118564771Y-43904981D01*
X118722016Y-44285543D01*
X119012926Y-44576961D01*
X119393213Y-44734870D01*
X119804981Y-44735229D01*
X120185543Y-44577984D01*
X120476961Y-44287074D01*
X120517685Y-44189000D01*
X120873000Y-44189000D01*
X120873000Y-53860480D01*
X120324450Y-53860480D01*
X120287074Y-53823039D01*
X119906787Y-53665130D01*
X119495019Y-53664771D01*
X119114457Y-53822016D01*
X118823039Y-54112926D01*
X118665130Y-54493213D01*
X118664771Y-54904981D01*
X118822016Y-55285543D01*
X119112926Y-55576961D01*
X119493213Y-55734870D01*
X119904981Y-55735229D01*
X120139131Y-55638480D01*
X120873000Y-55638480D01*
X120873000Y-57374500D01*
X112635300Y-57374500D01*
X112635343Y-57324697D01*
X112500865Y-56999235D01*
X112252075Y-56750010D01*
X111926848Y-56614964D01*
X111574697Y-56614657D01*
X111276184Y-56738000D01*
X105973152Y-56738000D01*
X105676848Y-56614964D01*
X105324697Y-56614657D01*
X104999235Y-56749135D01*
X104750010Y-56997925D01*
X104614964Y-57323152D01*
X104614919Y-57374500D01*
X102449382Y-57374500D01*
X102186743Y-57265443D01*
X101814888Y-57265118D01*
X101471216Y-57407121D01*
X101208045Y-57669832D01*
X101065443Y-58013257D01*
X101065118Y-58385112D01*
X101207121Y-58728784D01*
X101469832Y-58991955D01*
X101813257Y-59134557D01*
X102185112Y-59134882D01*
X102449835Y-59025500D01*
X109350618Y-59025500D01*
X109613257Y-59134557D01*
X109985112Y-59134882D01*
X110249835Y-59025500D01*
X111114788Y-59025500D01*
X111114657Y-59175303D01*
X111249135Y-59500765D01*
X111497925Y-59749990D01*
X111823152Y-59885036D01*
X112175303Y-59885343D01*
X112473816Y-59762000D01*
X123810089Y-59762000D01*
X123897925Y-59849990D01*
X124223152Y-59985036D01*
X124575303Y-59985343D01*
X124900765Y-59850865D01*
X125149990Y-59602075D01*
X125285036Y-59276848D01*
X125285255Y-59025500D01*
X133305764Y-59025500D01*
X133307121Y-59028784D01*
X133569832Y-59291955D01*
X133913257Y-59434557D01*
X134111000Y-59434730D01*
X134111000Y-60741919D01*
X133965130Y-61093213D01*
X133964771Y-61504981D01*
X134122016Y-61885543D01*
X134412926Y-62176961D01*
X134793213Y-62334870D01*
X134873000Y-62334940D01*
X134873000Y-68873000D01*
X126800000Y-68873000D01*
X126750590Y-68883006D01*
X126708965Y-68911447D01*
X126681685Y-68953841D01*
X126673000Y-69000000D01*
X126673000Y-80409643D01*
X126587828Y-80282174D01*
X126134609Y-79979342D01*
X125600000Y-79873002D01*
X125065391Y-79979342D01*
X125004916Y-80019750D01*
X125134870Y-79706787D01*
X125135229Y-79295019D01*
X124977984Y-78914457D01*
X124687074Y-78623039D01*
X124306787Y-78465130D01*
X123895019Y-78464771D01*
X123514457Y-78622016D01*
X123223039Y-78912926D01*
X123140791Y-79111000D01*
X121933440Y-79111000D01*
X121933440Y-77425500D01*
X122700000Y-77425500D01*
X123015906Y-77362663D01*
X123283717Y-77183717D01*
X123432268Y-77035166D01*
X123504981Y-77035229D01*
X123885543Y-76877984D01*
X124176961Y-76587074D01*
X124334870Y-76206787D01*
X124335229Y-75795019D01*
X124177984Y-75414457D01*
X123887074Y-75123039D01*
X123506787Y-74965130D01*
X123095019Y-74964771D01*
X122714457Y-75122016D01*
X122423039Y-75412926D01*
X122272900Y-75774500D01*
X117149382Y-75774500D01*
X116886743Y-75665443D01*
X116514888Y-75665118D01*
X116250165Y-75774500D01*
X108149382Y-75774500D01*
X107886743Y-75665443D01*
X107514888Y-75665118D01*
X107250165Y-75774500D01*
X99149382Y-75774500D01*
X98886743Y-75665443D01*
X98514888Y-75665118D01*
X98250165Y-75774500D01*
X90149382Y-75774500D01*
X89886743Y-75665443D01*
X89514888Y-75665118D01*
X89250165Y-75774500D01*
X81149382Y-75774500D01*
X80886743Y-75665443D01*
X80514888Y-75665118D01*
X80250165Y-75774500D01*
X73199382Y-75774500D01*
X72936743Y-75665443D01*
X72564888Y-75665118D01*
X72300165Y-75774500D01*
X59876524Y-75774500D01*
X59820168Y-75718045D01*
X59476743Y-75575443D01*
X59104888Y-75575118D01*
X58840165Y-75684500D01*
X51006489Y-75684500D01*
X50930168Y-75608045D01*
X50586743Y-75465443D01*
X50214888Y-75465118D01*
X49950165Y-75574500D01*
X42627000Y-75574500D01*
X42627000Y-71562422D01*
X52664596Y-71562422D01*
X53019329Y-72420943D01*
X53675602Y-73078362D01*
X54533502Y-73434593D01*
X55462422Y-73435404D01*
X56320943Y-73080671D01*
X56978362Y-72424398D01*
X57334593Y-71566498D01*
X57335404Y-70637578D01*
X57156659Y-70204981D01*
X59864771Y-70204981D01*
X60022016Y-70585543D01*
X60312926Y-70876961D01*
X60693213Y-71034870D01*
X61104981Y-71035229D01*
X61458882Y-70889000D01*
X62175515Y-70889000D01*
X62165443Y-70913257D01*
X62165118Y-71285112D01*
X62307121Y-71628784D01*
X62569832Y-71891955D01*
X62913257Y-72034557D01*
X63285112Y-72034882D01*
X63549835Y-71925500D01*
X65700000Y-71925500D01*
X66015906Y-71862663D01*
X66283717Y-71683717D01*
X66783714Y-71183719D01*
X66783717Y-71183717D01*
X66962663Y-70915905D01*
X66970206Y-70877984D01*
X67025501Y-70600000D01*
X67025500Y-70599995D01*
X67025500Y-70549382D01*
X67134557Y-70286743D01*
X67134882Y-69914888D01*
X66992879Y-69571216D01*
X66730168Y-69308045D01*
X66386743Y-69165443D01*
X66014888Y-69165118D01*
X65671216Y-69307121D01*
X65605912Y-69372311D01*
X65357074Y-69123039D01*
X64976787Y-68965130D01*
X64565019Y-68964771D01*
X64211118Y-69111000D01*
X61458081Y-69111000D01*
X61106787Y-68965130D01*
X60695019Y-68964771D01*
X60314457Y-69122016D01*
X60023039Y-69412926D01*
X59865130Y-69793213D01*
X59864771Y-70204981D01*
X57156659Y-70204981D01*
X56980671Y-69779057D01*
X56324398Y-69121638D01*
X55466498Y-68765407D01*
X54537578Y-68764596D01*
X53679057Y-69119329D01*
X53021638Y-69775602D01*
X52665407Y-70633502D01*
X52664596Y-71562422D01*
X42627000Y-71562422D01*
X42627000Y-65627000D01*
X55500000Y-65627000D01*
X55549410Y-65616994D01*
X55591035Y-65588553D01*
X55618315Y-65546159D01*
X55627000Y-65500000D01*
X55627000Y-62962000D01*
X62009625Y-62962000D01*
X61861185Y-63061185D01*
X61595754Y-63326616D01*
X61299235Y-63449135D01*
X61050010Y-63697925D01*
X60914964Y-64023152D01*
X60914657Y-64375303D01*
X61049135Y-64700765D01*
X61297925Y-64949990D01*
X61623152Y-65085036D01*
X61975303Y-65085343D01*
X62300765Y-64950865D01*
X62549990Y-64702075D01*
X62673855Y-64403775D01*
X62715630Y-64362000D01*
X64681880Y-64362000D01*
X64614964Y-64523152D01*
X64614657Y-64875303D01*
X64738283Y-65174500D01*
X63149382Y-65174500D01*
X62886743Y-65065443D01*
X62514888Y-65065118D01*
X62250165Y-65174500D01*
X59908555Y-65174500D01*
X59886743Y-65165443D01*
X59514888Y-65165118D01*
X59171216Y-65307121D01*
X58908045Y-65569832D01*
X58765443Y-65913257D01*
X58765118Y-66285112D01*
X58786971Y-66338000D01*
X52100000Y-66338000D01*
X51808395Y-66396004D01*
X51561184Y-66561185D01*
X51195753Y-66926616D01*
X50899235Y-67049135D01*
X50650010Y-67297925D01*
X50514964Y-67623152D01*
X50514657Y-67975303D01*
X50649135Y-68300765D01*
X50897925Y-68549990D01*
X51223152Y-68685036D01*
X51575303Y-68685343D01*
X51900765Y-68550865D01*
X52149990Y-68302075D01*
X52273855Y-68003776D01*
X52415631Y-67862000D01*
X67100000Y-67862000D01*
X67391605Y-67803996D01*
X67638815Y-67638815D01*
X67815630Y-67462000D01*
X72081880Y-67462000D01*
X72014964Y-67623152D01*
X72014657Y-67975303D01*
X72138000Y-68273816D01*
X72138000Y-69800000D01*
X72196004Y-70091605D01*
X72332580Y-70296004D01*
X72361185Y-70338815D01*
X73561184Y-71538815D01*
X73697904Y-71630168D01*
X73808395Y-71703996D01*
X73979344Y-71738000D01*
X72673152Y-71738000D01*
X72376848Y-71614964D01*
X72024697Y-71614657D01*
X71699235Y-71749135D01*
X71450010Y-71997925D01*
X71314964Y-72323152D01*
X71314657Y-72675303D01*
X71449135Y-73000765D01*
X71697925Y-73249990D01*
X72023152Y-73385036D01*
X72375303Y-73385343D01*
X72673816Y-73262000D01*
X83249160Y-73262000D01*
X83540765Y-73203996D01*
X83787975Y-73038815D01*
X84353407Y-72473384D01*
X84649925Y-72350865D01*
X84899150Y-72102075D01*
X85034196Y-71776848D01*
X85034209Y-71762000D01*
X92233530Y-71762000D01*
X92275776Y-71804246D01*
X92398295Y-72100765D01*
X92647085Y-72349990D01*
X92972312Y-72485036D01*
X93324463Y-72485343D01*
X93649925Y-72350865D01*
X93899150Y-72102075D01*
X94034196Y-71776848D01*
X94034503Y-71424697D01*
X94008597Y-71362000D01*
X100634270Y-71362000D01*
X101076516Y-71804247D01*
X101199035Y-72100765D01*
X101447825Y-72349990D01*
X101773052Y-72485036D01*
X102125203Y-72485343D01*
X102450665Y-72350865D01*
X102699890Y-72102075D01*
X102834936Y-71776848D01*
X102835243Y-71424697D01*
X102700765Y-71099235D01*
X102563770Y-70962000D01*
X109433530Y-70962000D01*
X110275776Y-71804246D01*
X110398295Y-72100765D01*
X110647085Y-72349990D01*
X110972312Y-72485036D01*
X111324463Y-72485343D01*
X111649925Y-72350865D01*
X111899150Y-72102075D01*
X112034196Y-71776848D01*
X112034503Y-71424697D01*
X111900025Y-71099235D01*
X111651235Y-70850010D01*
X111352935Y-70726145D01*
X111188790Y-70562000D01*
X117933530Y-70562000D01*
X119275777Y-71904247D01*
X119398295Y-72200765D01*
X119647085Y-72449990D01*
X119972312Y-72585036D01*
X120324463Y-72585343D01*
X120649925Y-72450865D01*
X120899150Y-72202075D01*
X121034196Y-71876848D01*
X121034503Y-71524697D01*
X120900025Y-71199235D01*
X120651235Y-70950010D01*
X120352937Y-70826146D01*
X118787975Y-69261185D01*
X118644687Y-69165443D01*
X118540765Y-69096004D01*
X118249160Y-69038000D01*
X101139630Y-69038000D01*
X101404246Y-68773384D01*
X101700765Y-68650865D01*
X101741183Y-68610518D01*
X102000000Y-68662000D01*
X102095883Y-68662000D01*
X102209377Y-68737834D01*
X102308395Y-68803996D01*
X102600000Y-68862000D01*
X109926848Y-68862000D01*
X110223152Y-68985036D01*
X110575303Y-68985343D01*
X110900765Y-68850865D01*
X111149990Y-68602075D01*
X111285036Y-68276848D01*
X111285049Y-68262000D01*
X118491799Y-68262000D01*
X118549135Y-68400765D01*
X118797925Y-68649990D01*
X119123152Y-68785036D01*
X119475303Y-68785343D01*
X119800765Y-68650865D01*
X120049990Y-68402075D01*
X120185036Y-68076848D01*
X120185343Y-67724697D01*
X120050865Y-67399235D01*
X119802075Y-67150010D01*
X119503775Y-67026145D01*
X119438815Y-66961185D01*
X119423370Y-66950865D01*
X119191605Y-66796004D01*
X118900000Y-66738000D01*
X112413652Y-66738000D01*
X112649990Y-66502075D01*
X112785036Y-66176848D01*
X112785343Y-65824697D01*
X112650865Y-65499235D01*
X112402075Y-65250010D01*
X112076848Y-65114964D01*
X111724697Y-65114657D01*
X111566828Y-65179887D01*
X111476799Y-64962000D01*
X112326848Y-64962000D01*
X112623152Y-65085036D01*
X112975303Y-65085343D01*
X113300765Y-64950865D01*
X113549990Y-64702075D01*
X113685036Y-64376848D01*
X113685119Y-64281287D01*
X114000765Y-64150865D01*
X114089362Y-64062422D01*
X116864596Y-64062422D01*
X117219329Y-64920943D01*
X117875602Y-65578362D01*
X118733502Y-65934593D01*
X119662422Y-65935404D01*
X120462108Y-65604981D01*
X123364771Y-65604981D01*
X123522016Y-65985543D01*
X123812926Y-66276961D01*
X124193213Y-66434870D01*
X124604981Y-66435229D01*
X124985543Y-66277984D01*
X125276961Y-65987074D01*
X125423807Y-65633429D01*
X126168236Y-64889000D01*
X130241919Y-64889000D01*
X130593213Y-65034870D01*
X131004981Y-65035229D01*
X131385543Y-64877984D01*
X131676961Y-64587074D01*
X131834870Y-64206787D01*
X131835229Y-63795019D01*
X131677984Y-63414457D01*
X131387074Y-63123039D01*
X131006787Y-62965130D01*
X130595019Y-62964771D01*
X130241118Y-63111000D01*
X125800000Y-63111000D01*
X125459794Y-63178671D01*
X125171382Y-63371382D01*
X124166004Y-64376760D01*
X123814457Y-64522016D01*
X123523039Y-64812926D01*
X123365130Y-65193213D01*
X123364771Y-65604981D01*
X120462108Y-65604981D01*
X120520943Y-65580671D01*
X121178362Y-64924398D01*
X121534593Y-64066498D01*
X121535404Y-63137578D01*
X121180671Y-62279057D01*
X120524398Y-61621638D01*
X119666498Y-61265407D01*
X118737578Y-61264596D01*
X117879057Y-61619329D01*
X117221638Y-62275602D01*
X116865407Y-63133502D01*
X116864596Y-64062422D01*
X114089362Y-64062422D01*
X114249990Y-63902075D01*
X114385036Y-63576848D01*
X114385343Y-63224697D01*
X114250865Y-62899235D01*
X114002075Y-62650010D01*
X113676848Y-62514964D01*
X113324697Y-62514657D01*
X112999235Y-62649135D01*
X112810040Y-62838000D01*
X105185157Y-62838000D01*
X105185343Y-62624697D01*
X105050865Y-62299235D01*
X104802075Y-62050010D01*
X104476848Y-61914964D01*
X104146331Y-61914676D01*
X104300765Y-61850865D01*
X104549990Y-61602075D01*
X104685036Y-61276848D01*
X104685343Y-60924697D01*
X104550865Y-60599235D01*
X104302075Y-60350010D01*
X103976848Y-60214964D01*
X103624697Y-60214657D01*
X103299235Y-60349135D01*
X103050010Y-60597925D01*
X102991846Y-60738000D01*
X100900000Y-60738000D01*
X100608395Y-60796004D01*
X100430811Y-60914662D01*
X100424697Y-60914657D01*
X100099235Y-61049135D01*
X99850010Y-61297925D01*
X99714964Y-61623152D01*
X99714657Y-61975303D01*
X99849135Y-62300765D01*
X99986130Y-62438000D01*
X83015631Y-62438000D01*
X82439630Y-61862000D01*
X84026848Y-61862000D01*
X84323152Y-61985036D01*
X84675303Y-61985343D01*
X85000765Y-61850865D01*
X85249990Y-61602075D01*
X85385036Y-61276848D01*
X85385136Y-61162000D01*
X85926848Y-61162000D01*
X86223152Y-61285036D01*
X86575303Y-61285343D01*
X86900765Y-61150865D01*
X87149990Y-60902075D01*
X87285036Y-60576848D01*
X87285343Y-60224697D01*
X87150865Y-59899235D01*
X86902075Y-59650010D01*
X86576848Y-59514964D01*
X86224697Y-59514657D01*
X85926184Y-59638000D01*
X82173152Y-59638000D01*
X81876848Y-59514964D01*
X81524697Y-59514657D01*
X81199235Y-59649135D01*
X80950010Y-59897925D01*
X80814964Y-60223152D01*
X80814657Y-60575303D01*
X80872326Y-60714873D01*
X80624697Y-60714657D01*
X80326184Y-60838000D01*
X78127000Y-60838000D01*
X78127000Y-56127000D01*
X84500000Y-56127000D01*
X84549410Y-56116994D01*
X84591035Y-56088553D01*
X84618315Y-56046159D01*
X84627000Y-56000000D01*
X84627000Y-55862000D01*
X85060370Y-55862000D01*
X84595754Y-56326616D01*
X84299235Y-56449135D01*
X84050010Y-56697925D01*
X83914964Y-57023152D01*
X83914657Y-57375303D01*
X84049135Y-57700765D01*
X84297925Y-57949990D01*
X84623152Y-58085036D01*
X84975303Y-58085343D01*
X85300765Y-57950865D01*
X85549990Y-57702075D01*
X85629369Y-57510909D01*
X85749135Y-57800765D01*
X85997925Y-58049990D01*
X86323152Y-58185036D01*
X86675303Y-58185343D01*
X87000765Y-58050865D01*
X87249990Y-57802075D01*
X87373855Y-57503776D01*
X88015631Y-56862000D01*
X97810118Y-56862000D01*
X97599235Y-56949135D01*
X97350010Y-57197925D01*
X97214964Y-57523152D01*
X97214657Y-57875303D01*
X97338000Y-58173816D01*
X97338000Y-59426848D01*
X97214964Y-59723152D01*
X97214657Y-60075303D01*
X97349135Y-60400765D01*
X97597925Y-60649990D01*
X97923152Y-60785036D01*
X97942643Y-60785053D01*
X97949135Y-60800765D01*
X98197925Y-61049990D01*
X98523152Y-61185036D01*
X98875303Y-61185343D01*
X99200765Y-61050865D01*
X99449990Y-60802075D01*
X99585036Y-60476848D01*
X99585343Y-60124697D01*
X99462000Y-59826184D01*
X99462000Y-57873152D01*
X99585036Y-57576848D01*
X99585343Y-57224697D01*
X99450865Y-56899235D01*
X99413695Y-56862000D01*
X99867675Y-56862000D01*
X99923152Y-56885036D01*
X100275303Y-56885343D01*
X100600765Y-56750865D01*
X100849990Y-56502075D01*
X100985036Y-56176848D01*
X100985343Y-55824697D01*
X100850865Y-55499235D01*
X100685161Y-55333241D01*
X100685343Y-55124697D01*
X100627710Y-54985214D01*
X100775303Y-54985343D01*
X101100765Y-54850865D01*
X101289960Y-54662000D01*
X103467675Y-54662000D01*
X103523152Y-54685036D01*
X103875303Y-54685343D01*
X104200765Y-54550865D01*
X104449990Y-54302075D01*
X104585036Y-53976848D01*
X104585343Y-53624697D01*
X104450865Y-53299235D01*
X104285248Y-53133329D01*
X104285343Y-53024697D01*
X104150865Y-52699235D01*
X103902075Y-52450010D01*
X103576848Y-52314964D01*
X103224697Y-52314657D01*
X102899235Y-52449135D01*
X102710040Y-52638000D01*
X101073152Y-52638000D01*
X100776848Y-52514964D01*
X100424697Y-52514657D01*
X100099235Y-52649135D01*
X99850010Y-52897925D01*
X99714964Y-53223152D01*
X99714657Y-53575303D01*
X99786852Y-53750027D01*
X99714964Y-53923152D01*
X99714657Y-54275303D01*
X99772290Y-54414786D01*
X99624697Y-54414657D01*
X99299235Y-54549135D01*
X99050010Y-54797925D01*
X99033369Y-54838000D01*
X96785157Y-54838000D01*
X96785343Y-54624697D01*
X96650865Y-54299235D01*
X96402075Y-54050010D01*
X96076848Y-53914964D01*
X95724697Y-53914657D01*
X95399235Y-54049135D01*
X95150010Y-54297925D01*
X95133369Y-54338000D01*
X84627000Y-54338000D01*
X84627000Y-51962000D01*
X96010263Y-51962000D01*
X96197925Y-52149990D01*
X96523152Y-52285036D01*
X96875303Y-52285343D01*
X97200765Y-52150865D01*
X97449990Y-51902075D01*
X97585036Y-51576848D01*
X97585049Y-51562000D01*
X108491799Y-51562000D01*
X108549135Y-51700765D01*
X108797925Y-51949990D01*
X109123152Y-52085036D01*
X109475303Y-52085343D01*
X109800765Y-51950865D01*
X110049990Y-51702075D01*
X110185036Y-51376848D01*
X110185343Y-51024697D01*
X110050865Y-50699235D01*
X109802075Y-50450010D01*
X109503775Y-50326145D01*
X109438815Y-50261185D01*
X109347245Y-50200000D01*
X109191605Y-50096004D01*
X108900000Y-50038000D01*
X105585070Y-50038000D01*
X105585343Y-49724697D01*
X105450865Y-49399235D01*
X105202075Y-49150010D01*
X104876848Y-49014964D01*
X104869631Y-49014958D01*
X104691605Y-48896004D01*
X104400000Y-48838000D01*
X96885157Y-48838000D01*
X96885343Y-48624697D01*
X96750865Y-48299235D01*
X96502075Y-48050010D01*
X96462000Y-48033369D01*
X96462000Y-41480068D01*
X96473298Y-41484759D01*
X96967757Y-41485191D01*
X98074500Y-42591934D01*
X98074500Y-44251533D01*
X97965823Y-44513257D01*
X97965498Y-44885112D01*
X98107501Y-45228784D01*
X98370212Y-45491955D01*
X98713637Y-45634557D01*
X99085492Y-45634882D01*
X99429164Y-45492879D01*
X99692335Y-45230168D01*
X99834937Y-44886743D01*
X99835262Y-44514888D01*
X99725500Y-44249245D01*
X99725500Y-42275303D01*
X106114657Y-42275303D01*
X106249135Y-42600765D01*
X106497925Y-42849990D01*
X106823152Y-42985036D01*
X107175303Y-42985343D01*
X107500765Y-42850865D01*
X107749990Y-42602075D01*
X107885036Y-42276848D01*
X107885343Y-41924697D01*
X107762000Y-41626184D01*
X107762000Y-37589911D01*
X107849990Y-37502075D01*
X107985036Y-37176848D01*
X107985343Y-36824697D01*
X107850865Y-36499235D01*
X107602075Y-36250010D01*
X107276848Y-36114964D01*
X106924697Y-36114657D01*
X106599235Y-36249135D01*
X106350010Y-36497925D01*
X106214964Y-36823152D01*
X106214657Y-37175303D01*
X106238000Y-37231797D01*
X106238000Y-41626848D01*
X106114964Y-41923152D01*
X106114657Y-42275303D01*
X99725500Y-42275303D01*
X99725500Y-42250000D01*
X99692500Y-42084095D01*
X99662663Y-41934094D01*
X99483717Y-41666283D01*
X98134811Y-40317377D01*
X98135240Y-39825715D01*
X98049420Y-39618014D01*
X98341934Y-39325500D01*
X102250618Y-39325500D01*
X102513257Y-39434557D01*
X102885112Y-39434882D01*
X103228784Y-39292879D01*
X103491955Y-39030168D01*
X103634557Y-38686743D01*
X103634882Y-38314888D01*
X103492879Y-37971216D01*
X103230168Y-37708045D01*
X102886743Y-37565443D01*
X102514888Y-37565118D01*
X102250165Y-37674500D01*
X98000005Y-37674500D01*
X98000000Y-37674499D01*
X97918257Y-37690759D01*
X97923461Y-37685564D01*
X98134759Y-37176702D01*
X98134760Y-37175303D01*
X104014657Y-37175303D01*
X104138000Y-37473816D01*
X104138000Y-40826848D01*
X104014964Y-41123152D01*
X104014657Y-41475303D01*
X104149135Y-41800765D01*
X104397925Y-42049990D01*
X104723152Y-42185036D01*
X105075303Y-42185343D01*
X105400765Y-42050865D01*
X105649990Y-41802075D01*
X105785036Y-41476848D01*
X105785343Y-41124697D01*
X105662000Y-40826184D01*
X105662000Y-37473152D01*
X105785036Y-37176848D01*
X105785343Y-36824697D01*
X105650865Y-36499235D01*
X105402075Y-36250010D01*
X105076848Y-36114964D01*
X104724697Y-36114657D01*
X104399235Y-36249135D01*
X104150010Y-36497925D01*
X104014964Y-36823152D01*
X104014657Y-37175303D01*
X98134760Y-37175303D01*
X98135240Y-36625715D01*
X97924831Y-36116485D01*
X97535564Y-35726539D01*
X97026702Y-35515241D01*
X96475715Y-35514760D01*
X96462000Y-35520427D01*
X96462000Y-34573152D01*
X96585036Y-34276848D01*
X96585343Y-33924697D01*
X96450865Y-33599235D01*
X96202075Y-33350010D01*
X95876848Y-33214964D01*
X95524697Y-33214657D01*
X95199235Y-33349135D01*
X94950010Y-33597925D01*
X94814964Y-33923152D01*
X94814657Y-34275303D01*
X94938000Y-34573816D01*
X94938000Y-35686027D01*
X94526702Y-35515241D01*
X93975715Y-35514760D01*
X93466485Y-35725169D01*
X93076539Y-36114436D01*
X93000073Y-36298586D01*
X92924831Y-36116485D01*
X92535564Y-35726539D01*
X92026702Y-35515241D01*
X91475715Y-35514760D01*
X90966485Y-35725169D01*
X90576539Y-36114436D01*
X90365241Y-36623298D01*
X90364760Y-37174285D01*
X90575169Y-37683515D01*
X90964436Y-38073461D01*
X91473298Y-38284759D01*
X92024285Y-38285240D01*
X92533515Y-38074831D01*
X92923461Y-37685564D01*
X92999927Y-37501414D01*
X93075169Y-37683515D01*
X93464436Y-38073461D01*
X93973298Y-38284759D01*
X94524285Y-38285240D01*
X94938000Y-38114297D01*
X94938000Y-38886027D01*
X94526702Y-38715241D01*
X93975715Y-38714760D01*
X93466485Y-38925169D01*
X93076539Y-39314436D01*
X93006647Y-39482754D01*
X92962460Y-39376077D01*
X92721517Y-39308088D01*
X91929605Y-40100000D01*
X92721517Y-40891912D01*
X92962460Y-40823923D01*
X93003222Y-40709389D01*
X93075169Y-40883515D01*
X93464436Y-41273461D01*
X93973298Y-41484759D01*
X94524285Y-41485240D01*
X94938000Y-41314297D01*
X94938000Y-48400000D01*
X94996004Y-48691605D01*
X95114749Y-48869319D01*
X95114657Y-48975303D01*
X95181882Y-49138000D01*
X85389911Y-49138000D01*
X85302075Y-49050010D01*
X84976848Y-48914964D01*
X84627000Y-48914659D01*
X84627000Y-41071517D01*
X90958088Y-41071517D01*
X91026077Y-41312460D01*
X91545171Y-41497201D01*
X92095448Y-41469230D01*
X92473923Y-41312460D01*
X92541912Y-41071517D01*
X91750000Y-40279605D01*
X90958088Y-41071517D01*
X84627000Y-41071517D01*
X84627000Y-39895171D01*
X90352799Y-39895171D01*
X90380770Y-40445448D01*
X90537540Y-40823923D01*
X90778483Y-40891912D01*
X91570395Y-40100000D01*
X90778483Y-39308088D01*
X90537540Y-39376077D01*
X90352799Y-39895171D01*
X84627000Y-39895171D01*
X84627000Y-39325025D01*
X84649990Y-39302075D01*
X84722071Y-39128483D01*
X90958088Y-39128483D01*
X91750000Y-39920395D01*
X92541912Y-39128483D01*
X92473923Y-38887540D01*
X91954829Y-38702799D01*
X91404552Y-38730770D01*
X91026077Y-38887540D01*
X90958088Y-39128483D01*
X84722071Y-39128483D01*
X84785036Y-38976848D01*
X84785132Y-38866645D01*
X84949990Y-38702075D01*
X85085036Y-38376848D01*
X85085343Y-38024697D01*
X84950865Y-37699235D01*
X84702075Y-37450010D01*
X84627000Y-37418836D01*
X84627000Y-32473564D01*
X103326851Y-32473564D01*
X103358982Y-32917968D01*
X103467232Y-33179308D01*
X103565378Y-33195524D01*
X103511064Y-33249743D01*
X103340195Y-33661241D01*
X103339806Y-34106804D01*
X103509957Y-34518600D01*
X103824743Y-34833936D01*
X104236241Y-35004805D01*
X104681804Y-35005194D01*
X105093600Y-34835043D01*
X105094726Y-34833919D01*
X105094743Y-34833936D01*
X105506241Y-35004805D01*
X105951804Y-35005194D01*
X106363600Y-34835043D01*
X106364726Y-34833919D01*
X106364743Y-34833936D01*
X106776241Y-35004805D01*
X107221804Y-35005194D01*
X107633600Y-34835043D01*
X107634726Y-34833919D01*
X107634743Y-34833936D01*
X108046241Y-35004805D01*
X108491804Y-35005194D01*
X108903600Y-34835043D01*
X108904726Y-34833919D01*
X108904743Y-34833936D01*
X109316241Y-35004805D01*
X109761804Y-35005194D01*
X110173600Y-34835043D01*
X110488936Y-34520257D01*
X110659805Y-34108759D01*
X110660194Y-33663196D01*
X110565430Y-33433850D01*
X110621431Y-33351890D01*
X110672440Y-33100000D01*
X110672440Y-32130000D01*
X110628162Y-31894683D01*
X110489090Y-31678559D01*
X110276890Y-31533569D01*
X110025000Y-31482560D01*
X109055000Y-31482560D01*
X108819683Y-31526838D01*
X108726866Y-31586564D01*
X108411436Y-31481851D01*
X107967032Y-31513982D01*
X107705692Y-31622232D01*
X107684421Y-31750971D01*
X107635000Y-31800392D01*
X107585579Y-31750971D01*
X107564308Y-31622232D01*
X107141436Y-31481851D01*
X106697032Y-31513982D01*
X106435692Y-31622232D01*
X106419476Y-31720378D01*
X106365257Y-31666064D01*
X105953759Y-31495195D01*
X105508196Y-31494806D01*
X105096400Y-31664957D01*
X105040575Y-31720685D01*
X105024308Y-31622232D01*
X104601436Y-31481851D01*
X104157032Y-31513982D01*
X103895692Y-31622232D01*
X103860405Y-31835800D01*
X104460000Y-32435395D01*
X104474143Y-32421253D01*
X104610050Y-32557160D01*
X104609949Y-32672941D01*
X104517840Y-32765050D01*
X104402059Y-32764949D01*
X104266253Y-32629143D01*
X104280395Y-32615000D01*
X103680800Y-32015405D01*
X103467232Y-32050692D01*
X103326851Y-32473564D01*
X84627000Y-32473564D01*
X84627000Y-28185000D01*
X110873000Y-28185000D01*
X110873000Y-35296413D01*
G36*
X107142337Y-32549447D02*
X107151177Y-32671713D01*
X107057839Y-32765051D01*
X106942059Y-32764949D01*
X106849950Y-32672840D01*
X106850051Y-32557059D01*
X106985858Y-32421253D01*
X107000000Y-32435395D01*
X107014143Y-32421253D01*
X107142337Y-32549447D01*
X107142337Y-32549447D01*
G37*
X107142337Y-32549447D02*
X107151177Y-32671713D01*
X107057839Y-32765051D01*
X106942059Y-32764949D01*
X106849950Y-32672840D01*
X106850051Y-32557059D01*
X106985858Y-32421253D01*
X107000000Y-32435395D01*
X107014143Y-32421253D01*
X107142337Y-32549447D01*
G36*
X108407560Y-32544670D02*
X108407560Y-32685330D01*
X108327840Y-32765050D01*
X108212059Y-32764949D01*
X108127663Y-32680553D01*
X108118823Y-32558287D01*
X108255858Y-32421253D01*
X108270000Y-32435395D01*
X108284143Y-32421253D01*
X108407560Y-32544670D01*
X108407560Y-32544670D01*
G37*
X108407560Y-32544670D02*
X108407560Y-32685330D01*
X108327840Y-32765050D01*
X108212059Y-32764949D01*
X108127663Y-32680553D01*
X108118823Y-32558287D01*
X108255858Y-32421253D01*
X108270000Y-32435395D01*
X108284143Y-32421253D01*
X108407560Y-32544670D01*
G36*
X45423748Y-78235858D02*
X45409605Y-78250000D01*
X45423748Y-78264143D01*
X45244143Y-78443748D01*
X45230000Y-78429605D01*
X45215858Y-78443748D01*
X45036253Y-78264143D01*
X45050395Y-78250000D01*
X45036253Y-78235858D01*
X45215858Y-78056253D01*
X45230000Y-78070395D01*
X45244143Y-78056253D01*
X45423748Y-78235858D01*
X45423748Y-78235858D01*
G37*
X45423748Y-78235858D02*
X45409605Y-78250000D01*
X45423748Y-78264143D01*
X45244143Y-78443748D01*
X45230000Y-78429605D01*
X45215858Y-78443748D01*
X45036253Y-78264143D01*
X45050395Y-78250000D01*
X45036253Y-78235858D01*
X45215858Y-78056253D01*
X45230000Y-78070395D01*
X45244143Y-78056253D01*
X45423748Y-78235858D01*
G36*
X66153748Y-78235858D02*
X66139605Y-78250000D01*
X66153748Y-78264143D01*
X65974143Y-78443748D01*
X65960000Y-78429605D01*
X65945858Y-78443748D01*
X65766253Y-78264143D01*
X65780395Y-78250000D01*
X65766253Y-78235858D01*
X65945858Y-78056253D01*
X65960000Y-78070395D01*
X65974143Y-78056253D01*
X66153748Y-78235858D01*
X66153748Y-78235858D01*
G37*
X66153748Y-78235858D02*
X66139605Y-78250000D01*
X66153748Y-78264143D01*
X65974143Y-78443748D01*
X65960000Y-78429605D01*
X65945858Y-78443748D01*
X65766253Y-78264143D01*
X65780395Y-78250000D01*
X65766253Y-78235858D01*
X65945858Y-78056253D01*
X65960000Y-78070395D01*
X65974143Y-78056253D01*
X66153748Y-78235858D01*
G36*
X81923748Y-78235858D02*
X81909605Y-78250000D01*
X81923748Y-78264143D01*
X81744143Y-78443748D01*
X81730000Y-78429605D01*
X81715858Y-78443748D01*
X81536253Y-78264143D01*
X81550395Y-78250000D01*
X81536253Y-78235858D01*
X81715858Y-78056253D01*
X81730000Y-78070395D01*
X81744143Y-78056253D01*
X81923748Y-78235858D01*
X81923748Y-78235858D01*
G37*
X81923748Y-78235858D02*
X81909605Y-78250000D01*
X81923748Y-78264143D01*
X81744143Y-78443748D01*
X81730000Y-78429605D01*
X81715858Y-78443748D01*
X81536253Y-78264143D01*
X81550395Y-78250000D01*
X81536253Y-78235858D01*
X81715858Y-78056253D01*
X81730000Y-78070395D01*
X81744143Y-78056253D01*
X81923748Y-78235858D01*
G36*
X56943748Y-78235858D02*
X56929605Y-78250000D01*
X56943748Y-78264143D01*
X56764143Y-78443748D01*
X56750000Y-78429605D01*
X56735858Y-78443748D01*
X56556253Y-78264143D01*
X56570395Y-78250000D01*
X56556253Y-78235858D01*
X56735858Y-78056253D01*
X56750000Y-78070395D01*
X56764143Y-78056253D01*
X56943748Y-78235858D01*
X56943748Y-78235858D01*
G37*
X56943748Y-78235858D02*
X56929605Y-78250000D01*
X56943748Y-78264143D01*
X56764143Y-78443748D01*
X56750000Y-78429605D01*
X56735858Y-78443748D01*
X56556253Y-78264143D01*
X56570395Y-78250000D01*
X56556253Y-78235858D01*
X56735858Y-78056253D01*
X56750000Y-78070395D01*
X56764143Y-78056253D01*
X56943748Y-78235858D01*
G36*
X90923748Y-78235858D02*
X90909605Y-78250000D01*
X90923748Y-78264143D01*
X90744143Y-78443748D01*
X90730000Y-78429605D01*
X90715858Y-78443748D01*
X90536253Y-78264143D01*
X90550395Y-78250000D01*
X90536253Y-78235858D01*
X90715858Y-78056253D01*
X90730000Y-78070395D01*
X90744143Y-78056253D01*
X90923748Y-78235858D01*
X90923748Y-78235858D01*
G37*
X90923748Y-78235858D02*
X90909605Y-78250000D01*
X90923748Y-78264143D01*
X90744143Y-78443748D01*
X90730000Y-78429605D01*
X90715858Y-78443748D01*
X90536253Y-78264143D01*
X90550395Y-78250000D01*
X90536253Y-78235858D01*
X90715858Y-78056253D01*
X90730000Y-78070395D01*
X90744143Y-78056253D01*
X90923748Y-78235858D01*
G36*
X99923748Y-78235858D02*
X99909605Y-78250000D01*
X99923748Y-78264143D01*
X99744143Y-78443748D01*
X99730000Y-78429605D01*
X99715858Y-78443748D01*
X99536253Y-78264143D01*
X99550395Y-78250000D01*
X99536253Y-78235858D01*
X99715858Y-78056253D01*
X99730000Y-78070395D01*
X99744143Y-78056253D01*
X99923748Y-78235858D01*
X99923748Y-78235858D01*
G37*
X99923748Y-78235858D02*
X99909605Y-78250000D01*
X99923748Y-78264143D01*
X99744143Y-78443748D01*
X99730000Y-78429605D01*
X99715858Y-78443748D01*
X99536253Y-78264143D01*
X99550395Y-78250000D01*
X99536253Y-78235858D01*
X99715858Y-78056253D01*
X99730000Y-78070395D01*
X99744143Y-78056253D01*
X99923748Y-78235858D01*
G36*
X108923748Y-78235858D02*
X108909605Y-78250000D01*
X108923748Y-78264143D01*
X108744143Y-78443748D01*
X108730000Y-78429605D01*
X108715858Y-78443748D01*
X108536253Y-78264143D01*
X108550395Y-78250000D01*
X108536253Y-78235858D01*
X108715858Y-78056253D01*
X108730000Y-78070395D01*
X108744143Y-78056253D01*
X108923748Y-78235858D01*
X108923748Y-78235858D01*
G37*
X108923748Y-78235858D02*
X108909605Y-78250000D01*
X108923748Y-78264143D01*
X108744143Y-78443748D01*
X108730000Y-78429605D01*
X108715858Y-78443748D01*
X108536253Y-78264143D01*
X108550395Y-78250000D01*
X108536253Y-78235858D01*
X108715858Y-78056253D01*
X108730000Y-78070395D01*
X108744143Y-78056253D01*
X108923748Y-78235858D01*
G36*
X117923748Y-78235858D02*
X117909605Y-78250000D01*
X117923748Y-78264143D01*
X117744143Y-78443748D01*
X117730000Y-78429605D01*
X117715858Y-78443748D01*
X117536253Y-78264143D01*
X117550395Y-78250000D01*
X117536253Y-78235858D01*
X117715858Y-78056253D01*
X117730000Y-78070395D01*
X117744143Y-78056253D01*
X117923748Y-78235858D01*
X117923748Y-78235858D01*
G37*
X117923748Y-78235858D02*
X117909605Y-78250000D01*
X117923748Y-78264143D01*
X117744143Y-78443748D01*
X117730000Y-78429605D01*
X117715858Y-78443748D01*
X117536253Y-78264143D01*
X117550395Y-78250000D01*
X117536253Y-78235858D01*
X117715858Y-78056253D01*
X117730000Y-78070395D01*
X117744143Y-78056253D01*
X117923748Y-78235858D01*
M02*
