M48
;DRILL file {KiCad 4.0.1-stable} date 2018/01/12 13:37:50
;FORMAT={-:-/ absolute / inch / decimal}
FMAT,2
INCH,TZ
T1C0.013
T2C0.016
T3C0.025
T4C0.031
T5C0.032
T6C0.040
T7C0.087
T8C0.126
%
G90
G05
M72
T1
X1.3071Y-1.9961
X1.3091Y-3.1004
X1.3622Y-2.815
X1.3622Y-2.8819
X1.3661Y-2.752
X1.3681Y-2.0472
X1.3681Y-2.0866
X1.3681Y-2.126
X1.3681Y-2.1752
X1.3681Y-2.2244
X1.3681Y-2.2736
X1.3681Y-2.3228
X1.3681Y-2.372
X1.3681Y-2.4311
X1.3681Y-2.4902
X1.3681Y-2.5394
X1.3681Y-2.5886
X1.4055Y-2.7559
X1.4055Y-2.8189
X1.4055Y-2.878
X1.4075Y-2.0472
X1.4075Y-2.0866
X1.4075Y-2.126
X1.4075Y-2.1752
X1.4075Y-2.2244
X1.4075Y-2.2736
X1.4075Y-2.3228
X1.4075Y-2.372
X1.4075Y-2.4311
X1.4075Y-2.4902
X1.4075Y-2.5394
X1.4075Y-2.5886
X1.4094Y-3.0472
X1.4567Y-2.0472
X1.4567Y-2.0866
X1.4567Y-2.126
X1.4567Y-2.1752
X1.4567Y-2.2244
X1.4567Y-2.2736
X1.4567Y-2.3228
X1.4567Y-2.372
X1.4567Y-2.4311
X1.4567Y-2.4902
X1.4567Y-2.5394
X1.4567Y-2.5886
X1.4567Y-2.7559
X1.4567Y-2.815
X1.4567Y-2.8819
X1.4567Y-2.9803
X1.4803Y-1.748
X1.5059Y-2.0472
X1.5059Y-2.0866
X1.5059Y-2.126
X1.5059Y-2.1752
X1.5059Y-2.2244
X1.5059Y-2.2736
X1.5059Y-2.3228
X1.5059Y-2.372
X1.5059Y-2.4311
X1.5059Y-2.4902
X1.5059Y-2.5394
X1.5059Y-2.5886
X1.5059Y-2.6476
X1.5059Y-2.6969
X1.5059Y-2.7559
X1.5059Y-2.815
X1.5059Y-2.8839
X1.5059Y-2.9429
X1.5059Y-2.9823
X1.5551Y-2.0472
X1.5551Y-2.0866
X1.5551Y-2.126
X1.5551Y-2.1752
X1.5551Y-2.2244
X1.5551Y-2.2736
X1.5551Y-2.3228
X1.5551Y-2.372
X1.5551Y-2.4311
X1.5551Y-2.4902
X1.5551Y-2.5394
X1.5551Y-2.5886
X1.5551Y-2.6476
X1.5551Y-2.6969
X1.5551Y-2.7559
X1.5551Y-2.815
X1.5551Y-2.8839
X1.5551Y-2.9429
X1.5551Y-2.9823
X1.5945Y-2.0472
X1.5945Y-2.0866
X1.5945Y-2.126
X1.5945Y-2.1752
X1.5945Y-2.2244
X1.5945Y-2.2736
X1.5945Y-2.3228
X1.5945Y-2.372
X1.5945Y-2.4311
X1.5945Y-2.4902
X1.5945Y-2.5394
X1.5945Y-2.5886
X1.5945Y-2.6476
X1.5945Y-2.6969
X1.5945Y-2.7559
X1.5945Y-2.815
X1.5945Y-2.8839
X1.5945Y-2.9429
X1.5945Y-2.9823
X1.5984Y-1.6693
X1.6378Y-3.2126
X1.6437Y-2.0472
X1.6437Y-2.0866
X1.6437Y-2.126
X1.6437Y-2.1752
X1.6437Y-2.2244
X1.6437Y-2.2736
X1.6437Y-2.3228
X1.6437Y-2.372
X1.6437Y-2.4311
X1.6831Y-2.0472
X1.6831Y-2.0866
X1.6831Y-2.126
X1.6831Y-2.1752
X1.6831Y-2.2244
X1.6831Y-2.2736
X1.689Y-1.5315
X1.6969Y-2.5
X1.7165Y-3.1457
X1.7205Y-1.9961
X1.7224Y-2.0472
X1.7224Y-2.0866
X1.7224Y-2.126
X1.7224Y-2.1752
X1.7224Y-2.2244
X1.7224Y-2.2736
X1.7618Y-2.126
X1.7618Y-2.1752
X1.7618Y-2.2244
X1.7913Y-1.7441
X1.7913Y-2.126
X1.7913Y-2.1752
X1.7913Y-2.2244
X1.8386Y-1.9961
X1.8602Y-2.1358
X1.8602Y-2.1752
X1.8602Y-2.2146
X1.8858Y-2.3268
X1.8996Y-2.1358
X1.8996Y-2.1752
X1.8996Y-2.2146
X1.9173Y-2.3504
X1.9291Y-2.5472
X1.939Y-2.1358
X1.939Y-2.1752
X1.939Y-2.2146
X1.9606Y-1.9921
X1.9646Y-2.3504
X1.9843Y-3.0079
X1.9882Y-2.3268
X1.9961Y-1.7441
X2.0079Y-2.126
X2.0079Y-2.1752
X2.0079Y-2.2244
X2.0236Y-2.5472
X2.0236Y-2.6693
X2.0374Y-2.126
X2.0374Y-2.1752
X2.0374Y-2.2244
X2.0551Y-2.3976
X2.0768Y-2.0374
X2.0768Y-2.0768
X2.0768Y-2.126
X2.0768Y-2.1752
X2.0768Y-2.2244
X2.0768Y-2.2638
X2.0768Y-2.3031
X2.1161Y-2.0374
X2.1161Y-2.0768
X2.1161Y-2.126
X2.1161Y-2.1752
X2.1161Y-2.2244
X2.1161Y-2.2638
X2.1161Y-2.3031
X2.1161Y-2.3425
X2.1299Y-2.4252
X2.1417Y-1.5079
X2.1654Y-1.9882
X2.1654Y-2.0374
X2.1654Y-2.0768
X2.1654Y-2.126
X2.1654Y-2.1752
X2.1654Y-2.2244
X2.1654Y-2.2638
X2.1654Y-2.3031
X2.1654Y-2.3425
X2.1654Y-2.3917
X2.2146Y-1.939
X2.2146Y-1.9882
X2.2146Y-2.0374
X2.2146Y-2.0768
X2.2146Y-2.126
X2.2146Y-2.1752
X2.2146Y-2.2244
X2.2146Y-2.2638
X2.2146Y-2.3031
X2.2146Y-2.3425
X2.2146Y-2.3917
X2.2638Y-1.8996
X2.2638Y-1.939
X2.2638Y-1.9882
X2.2638Y-2.0374
X2.2638Y-2.0768
X2.2638Y-2.126
X2.2638Y-2.1752
X2.2638Y-2.2244
X2.2638Y-2.2638
X2.2638Y-2.3031
X2.2638Y-2.3425
X2.2638Y-2.3917
X2.3071Y-1.8425
X2.3268Y-2.3819
X2.3343Y-3.0122
X2.3346Y-1.5984
X2.3504Y-2.6024
X2.3524Y-1.6831
X2.3524Y-1.7224
X2.3524Y-1.7618
X2.3524Y-1.811
X2.3524Y-1.8602
X2.3524Y-1.9094
X2.3524Y-1.9587
X2.3524Y-2.0079
X2.3524Y-2.0571
X2.3524Y-2.1161
X2.3524Y-2.1752
X2.3524Y-2.2343
X2.3524Y-2.2933
X2.3524Y-2.3425
X2.3976Y-2.7559
X2.3976Y-3.1496
X2.4016Y-1.6831
X2.4016Y-1.7224
X2.4016Y-1.7618
X2.4016Y-1.811
X2.4016Y-1.8602
X2.4016Y-1.9094
X2.4016Y-1.9587
X2.4016Y-2.0079
X2.4016Y-2.0571
X2.4016Y-2.1161
X2.4016Y-2.1752
X2.4016Y-2.2343
X2.4016Y-2.2933
X2.4016Y-2.3425
X2.4173Y-1.6496
X2.4331Y-2.5276
X2.4508Y-1.6831
X2.4508Y-1.7224
X2.4508Y-1.7618
X2.4508Y-1.811
X2.4508Y-1.8602
X2.4508Y-1.9094
X2.4508Y-1.9587
X2.4508Y-2.0079
X2.4508Y-2.0571
X2.4508Y-2.1161
X2.4508Y-2.1752
X2.4508Y-2.2343
X2.4508Y-2.2933
X2.4508Y-2.3425
X2.4606Y-1.3189
X2.4685Y-2.5984
X2.4843Y-2.7992
X2.5098Y-1.811
X2.5098Y-1.8602
X2.5098Y-1.9094
X2.5098Y-1.9587
X2.5098Y-2.0079
X2.5098Y-2.0571
X2.5098Y-2.1161
X2.5098Y-2.1752
X2.5098Y-2.2343
X2.5098Y-2.2933
X2.5098Y-2.3425
X2.55Y-2.7559
X2.5591Y-1.811
X2.5591Y-1.8602
X2.5591Y-1.9094
X2.5591Y-1.9587
X2.5591Y-2.0079
X2.5591Y-2.0571
X2.5591Y-2.1161
X2.5591Y-2.1752
X2.5591Y-2.2343
X2.5591Y-2.2933
X2.5709Y-1.5787
X2.5787Y-2.5472
X2.6063Y-2.3858
X2.6063Y-2.5984
X2.6063Y-2.7598
X2.6083Y-1.811
X2.6083Y-1.8602
X2.6083Y-1.9094
X2.6181Y-1.7362
X2.6181Y-1.9587
X2.6181Y-2.0079
X2.6181Y-2.0571
X2.6575Y-1.8602
X2.6575Y-1.9094
X2.6575Y-1.9587
X2.6969Y-1.8602
X2.6969Y-1.9094
X2.6969Y-1.9587
X2.7067Y-1.3878
X2.7362Y-1.7362
X2.7559Y-1.9193
X2.7657Y-1.8799
X2.7657Y-1.9488
X2.7874Y-2.0669
X2.7953Y-1.8799
X2.8002Y-1.9144
X2.8051Y-1.9488
X2.815Y-2.0906
X2.8189Y-2.2992
X2.8228Y-2.5866
X2.8307Y-2.9646
X2.8346Y-1.8799
X2.8346Y-1.9488
X2.8425Y-2.8543
X2.8445Y-1.9193
X2.8622Y-1.7362
X2.8622Y-2.0906
X2.8642Y-3.0157
X2.8701Y-2.6693
X2.8898Y-2.0669
X2.8898Y-2.5433
X2.8937Y-2.6535
X2.9035Y-1.3878
X2.9035Y-1.8602
X2.9035Y-1.9094
X2.9035Y-1.9587
X2.9173Y-2.6339
X2.9291Y-2.9685
X2.9409Y-2.6457
X2.9429Y-1.8602
X2.9429Y-1.9094
X2.9429Y-1.9587
X2.9567Y-2.1378
X2.9823Y-1.811
X2.9823Y-1.8602
X2.9823Y-1.9094
X2.9823Y-1.9587
X2.9823Y-2.0079
X2.9823Y-2.0571
X3.Y-2.2835
X3.0118Y-1.9094
X3.0197Y-2.6063
X3.0217Y-1.7618
X3.0217Y-1.811
X3.0217Y-1.8602
X3.0217Y-1.9587
X3.0217Y-2.0079
X3.0217Y-2.0571
X3.0217Y-2.0866
X3.0394Y-1.5079
X3.0413Y-2.1457
X3.0433Y-2.4764
X3.0709Y-1.3189
X3.0709Y-1.7126
X3.0709Y-1.7618
X3.0709Y-1.811
X3.0709Y-1.8602
X3.0709Y-1.9094
X3.0709Y-1.9587
X3.0709Y-2.0079
X3.0709Y-2.0571
X3.0709Y-2.1063
X3.0709Y-2.1457
X3.1201Y-1.6732
X3.1201Y-1.7126
X3.1201Y-1.7618
X3.1201Y-1.811
X3.1201Y-1.8602
X3.1201Y-1.9094
X3.1201Y-1.9587
X3.1201Y-2.0079
X3.1201Y-2.0571
X3.1201Y-2.1063
X3.1201Y-2.1457
X3.1693Y-1.6339
X3.1693Y-1.6732
X3.1693Y-1.7126
X3.1693Y-1.7618
X3.1693Y-1.811
X3.1693Y-1.8602
X3.1693Y-1.9094
X3.1693Y-1.9587
X3.1693Y-2.0079
X3.1693Y-2.0571
X3.1693Y-2.1063
X3.1693Y-2.1457
X3.1772Y-3.0157
X3.1811Y-2.4252
X3.1929Y-1.5866
X3.2087Y-1.6339
X3.2087Y-1.6732
X3.2087Y-1.7126
X3.2087Y-1.7618
X3.2087Y-1.811
X3.2087Y-1.8602
X3.2087Y-1.9094
X3.2087Y-1.9587
X3.2087Y-2.0079
X3.2087Y-2.0571
X3.2087Y-2.1063
X3.2087Y-2.1457
X3.2165Y-2.3268
X3.2165Y-2.378
X3.2165Y-2.4055
X3.2165Y-2.4803
X3.2244Y-2.4291
X3.248Y-1.6339
X3.248Y-1.6732
X3.248Y-1.7126
X3.248Y-1.7618
X3.248Y-1.811
X3.248Y-1.8602
X3.248Y-1.9094
X3.248Y-1.9587
X3.248Y-2.0079
X3.248Y-2.0571
X3.248Y-2.1063
X3.248Y-2.1457
X3.2677Y-1.5591
X3.2795Y-1.5354
X3.2874Y-2.0157
X3.2992Y-1.9921
X3.3031Y-1.5276
X3.313Y-2.8189
X3.315Y-1.5039
X3.315Y-1.9724
X3.3268Y-2.4055
X3.3307Y-2.7047
X3.3386Y-1.9606
X3.3386Y-2.252
X3.4016Y-2.378
X3.4055Y-2.2559
X3.5236Y-2.3819
X3.5315Y-3.0157
X3.5591Y-1.878
X3.5669Y-2.2638
X3.5709Y-1.9331
X3.6673Y-2.8189
X3.6811Y-2.7047
X3.7677Y-1.3425
X3.7756Y-2.1575
X3.7795Y-1.9213
X3.8071Y-2.0236
X3.8228Y-1.9764
X3.8583Y-2.626
X3.8622Y-2.2717
X3.8622Y-2.3583
X3.8858Y-2.2598
X3.8858Y-2.374
X3.8858Y-3.0157
X3.8898Y-2.6496
X3.8937Y-1.7598
X3.9291Y-2.1772
X3.9409Y-2.2047
X3.9488Y-2.6732
X3.9606Y-2.1024
X3.9606Y-2.1299
X3.9606Y-2.4331
X3.9724Y-2.378
X3.9843Y-2.2402
X3.9843Y-2.4567
X3.9843Y-2.6732
X4.0138Y-2.8189
X4.0157Y-2.2913
X4.0433Y-1.5157
X4.0551Y-2.4449
X4.0709Y-2.0945
X4.0827Y-2.1181
X4.0866Y-2.4055
X4.0984Y-1.5551
X4.1063Y-2.4724
X4.122Y-1.9646
X4.1299Y-1.4567
X4.1299Y-1.626
X4.1535Y-2.2638
X4.2126Y-1.6575
X4.2165Y-1.4567
X4.2402Y-3.0157
X4.3031Y-1.4567
X4.3031Y-1.6929
X4.3031Y-2.0157
X4.3071Y-1.8307
X4.3228Y-2.2913
X4.3465Y-2.6811
X4.3504Y-1.4213
X4.3583Y-2.5748
X4.376Y-2.8189
X4.3996Y-2.2638
X4.4055Y-2.5984
X4.4094Y-2.3228
X4.437Y-1.2874
X4.437Y-1.3425
X4.437Y-1.3819
X4.437Y-1.4252
X4.4409Y-2.5276
X4.4572Y-1.6024
X4.4685Y-2.4961
X4.4882Y-1.2894
X4.5177Y-1.2697
X4.5177Y-1.2894
X4.5177Y-1.3091
X4.5472Y-1.2697
X4.5472Y-1.2873
X4.5472Y-1.3091
X4.5768Y-1.2697
X4.5768Y-1.2894
X4.5768Y-1.3091
X4.5945Y-1.6102
X4.5945Y-3.0157
X4.6063Y-1.2894
X4.6535Y-1.2874
X4.6535Y-1.3425
X4.6535Y-1.3819
X4.6535Y-1.4213
X4.6969Y-2.6732
X4.7047Y-2.2244
X4.7087Y-1.7205
X4.7126Y-1.6102
X4.7126Y-2.1535
X4.7303Y-2.8228
X4.7874Y-2.6654
X4.8189Y-1.4685
X4.8425Y-2.2913
X4.8543Y-2.9921
X4.8858Y-3.1299
X4.8976Y-2.3268
X4.8976Y-2.5748
X4.9398Y-2.7205
X4.9449Y-3.1996
X5.0276Y-2.8661
X5.0276Y-3.0157
X5.0709Y-2.622
X5.0709Y-2.7402
X5.0787Y-2.1555
X5.1496Y-2.5197
X5.2795Y-2.3031
X5.2835Y-1.815
X5.315Y-2.4134
T2
X2.0965Y-2.3819
X2.997Y-2.1211
T3
X4.1126Y-1.2841
X4.1126Y-1.3341
X4.1626Y-1.2841
X4.1626Y-1.3341
X4.2126Y-1.2841
X4.2126Y-1.3341
X4.2626Y-1.2841
X4.2626Y-1.3341
X4.3126Y-1.2841
X4.3126Y-1.3341
T4
X3.6122Y-1.4528
X3.6122Y-1.5787
X3.7106Y-1.4528
X3.7106Y-1.5787
X3.8091Y-1.4528
X3.8091Y-1.5787
T5
X4.8937Y-1.8693
X4.8937Y-1.9693
X4.9724Y-1.8693
X4.9724Y-1.9693
T6
X1.3083Y-1.4961
X1.3083Y-2.6673
X1.3083Y-2.9429
X1.3083Y-3.2185
X1.4083Y-1.4961
X1.4083Y-2.6673
X1.4083Y-2.9429
X1.4083Y-3.2185
X1.7496Y-1.3287
X1.7496Y-1.5945
X1.7807Y-3.0807
X1.8496Y-1.3287
X1.8496Y-1.5945
X1.8807Y-3.0807
X1.9496Y-1.3287
X1.9496Y-1.5945
X2.0496Y-1.3287
X2.0496Y-1.5945
X2.1343Y-3.0807
X2.2343Y-3.0807
X2.3343Y-3.0807
X2.5969Y-3.0807
X2.6492Y-1.3307
X2.6969Y-3.0807
X2.7492Y-1.3307
X2.7969Y-3.0807
X2.8492Y-1.3307
X2.9492Y-1.3307
X3.2177Y-3.0807
X3.3177Y-3.0807
X3.572Y-3.0807
X3.672Y-3.0807
X3.9264Y-3.0807
X4.0264Y-3.0807
X4.2807Y-3.0807
X4.3807Y-3.0807
X4.635Y-3.0807
X4.735Y-3.0807
X5.1311Y-3.2795
X5.2311Y-3.2795
T7
X5.0787Y-1.6831
X5.0787Y-2.1555
T8
X1.2874Y-1.1929
X2.1654Y-2.7992
X4.6929Y-2.5039
X5.2047Y-1.1929
T0
M30
