G04 #@! TF.FileFunction,Legend,Bot*
%FSLAX46Y46*%
G04 Gerber Fmt 4.6, Leading zero omitted, Abs format (unit mm)*
G04 Created by KiCad (PCBNEW 4.0.1-stable) date 2018/01/12 13:37:46*
%MOMM*%
G01*
G04 APERTURE LIST*
%ADD10C,0.150000*%
%ADD11C,1.500000*%
%ADD12C,0.800100*%
%ADD13C,1.524000*%
%ADD14C,2.900000*%
%ADD15C,1.500000*%
%ADD16R,0.970000X0.970000*%
%ADD17C,0.970000*%
%ADD18R,2.032000X2.032000*%
%ADD19C,2.032000*%
%ADD20C,3.400000*%
%ADD21R,16.000000X5.000000*%
G04 APERTURE END LIST*
D10*
%LPC*%
D11*
X30480000Y-32385000D02*
X36830000Y-32385000D01*
X30480000Y-31115000D02*
X30480000Y-32385000D01*
X36195000Y-31115000D02*
X30480000Y-31115000D01*
X36195000Y-29845000D02*
X36195000Y-31115000D01*
X30480000Y-29845000D02*
X36195000Y-29845000D01*
X30480000Y-28575000D02*
X30480000Y-29845000D01*
X36830000Y-28575000D02*
X30480000Y-28575000D01*
X36830000Y-33655000D02*
X36830000Y-28575000D01*
X30480000Y-33655000D02*
X36830000Y-33655000D01*
X30480000Y-28575000D02*
X30480000Y-33655000D01*
X134620000Y-33655000D02*
X134620000Y-33020000D01*
X128270000Y-33655000D02*
X134620000Y-33655000D01*
X128270000Y-33020000D02*
X128270000Y-33655000D01*
X128270000Y-31750000D02*
X134620000Y-31750000D01*
X128270000Y-31115000D02*
X128270000Y-31750000D01*
X134620000Y-31115000D02*
X128270000Y-31115000D01*
X134620000Y-29845000D02*
X134620000Y-31115000D01*
X128270000Y-29845000D02*
X134620000Y-29845000D01*
X128270000Y-28575000D02*
X128270000Y-29845000D01*
X134620000Y-28575000D02*
X128270000Y-28575000D01*
X134620000Y-33020000D02*
X134620000Y-28575000D01*
X128270000Y-33020000D02*
X134620000Y-33020000D01*
X128270000Y-28575000D02*
X128270000Y-33020000D01*
D12*
X76125000Y-53875000D03*
X53250000Y-60500000D03*
D13*
X124301000Y-47480000D03*
X124301000Y-50020000D03*
X126299980Y-50020000D03*
X126299980Y-47480000D03*
D14*
X129000000Y-42750520D03*
X129000000Y-54749480D03*
D15*
X91750000Y-40100000D03*
X94250000Y-40100000D03*
X96750000Y-40100000D03*
X96750000Y-36900000D03*
X94250000Y-36900000D03*
X91750000Y-36900000D03*
D16*
X109540000Y-32615000D03*
D17*
X109540000Y-33885000D03*
X108270000Y-32615000D03*
X108270000Y-33885000D03*
X107000000Y-32615000D03*
X107000000Y-33885000D03*
X105730000Y-32615000D03*
X105730000Y-33885000D03*
X104460000Y-32615000D03*
X104460000Y-33885000D03*
D18*
X67290000Y-33800000D03*
D19*
X69830000Y-33800000D03*
X72370000Y-33800000D03*
X74910000Y-33800000D03*
D18*
X44440000Y-40500000D03*
D19*
X46980000Y-40500000D03*
X49520000Y-40500000D03*
X52060000Y-40500000D03*
D18*
X44440000Y-33750000D03*
D19*
X46980000Y-33750000D03*
X49520000Y-33750000D03*
X52060000Y-33750000D03*
D18*
X59290000Y-78250000D03*
D19*
X56750000Y-78250000D03*
X54210000Y-78250000D03*
D18*
X71040000Y-78250000D03*
D19*
X68500000Y-78250000D03*
X65960000Y-78250000D03*
D18*
X102270000Y-78250000D03*
D19*
X99730000Y-78250000D03*
D18*
X33230000Y-81750000D03*
D19*
X35770000Y-81750000D03*
D18*
X132870000Y-83300000D03*
D19*
X130330000Y-83300000D03*
D18*
X120270000Y-78250000D03*
D19*
X117730000Y-78250000D03*
D18*
X111270000Y-78250000D03*
D19*
X108730000Y-78250000D03*
D18*
X84270000Y-78250000D03*
D19*
X81730000Y-78250000D03*
D18*
X33230000Y-74750000D03*
D19*
X35770000Y-74750000D03*
D18*
X47770000Y-78250000D03*
D19*
X45230000Y-78250000D03*
D18*
X33230000Y-67750000D03*
D19*
X35770000Y-67750000D03*
D18*
X93270000Y-78250000D03*
D19*
X90730000Y-78250000D03*
D20*
X132200000Y-30300000D03*
X119200000Y-63600000D03*
X55000000Y-71100000D03*
X32700000Y-30300000D03*
D18*
X33230000Y-38000000D03*
D19*
X35770000Y-38000000D03*
D21*
X48250000Y-55250000D03*
X71120000Y-48620000D03*
M02*
